  0
SECTION
  2
HEADER
  9
$ACADVER
  1
AC1015
  9
$ACADMAINTVER
 70
     6
  9
$DWGCODEPAGE
  3
ANSI_1252
  9
$INSBASE
 10
0.0
 20
0.0
 30
0.0
  9
$EXTMIN
 10
0.0
 20
-115.0
 30
0.0
  9
$EXTMAX
 10
280.0
 20
0.0
 30
0.0
  9
$LIMMIN
 10
0.0
 20
0.0
  9
$LIMMAX
 10
420.0
 20
297.0
  9
$ORTHOMODE
 70
     0
  9
$REGENMODE
 70
     1
  9
$FILLMODE
 70
     1
  9
$QTEXTMODE
 70
     0
  9
$MIRRTEXT
 70
     1
  9
$LTSCALE
 40
1.0
  9
$ATTMODE
 70
     1
  9
$TEXTSIZE
 40
3.175
  9
$TRACEWID
 40
1.0
  9
$TEXTSTYLE
  7
Standard
  9
$CLAYER
  8
0
  9
$CELTYPE
  6
ByLayer
  9
$CECOLOR
 62
   256
  9
$CELTSCALE
 40
1.0
  9
$DISPSILH
 70
     0
  9
$DIMSCALE
 40
1.0
  9
$DIMASZ
 40
3.302
  9
$DIMEXO
 40
0.0
  9
$DIMDLI
 40
3.75
  9
$DIMRND
 40
0.0
  9
$DIMDLE
 40
0.0
  9
$DIMEXE
 40
3.175
  9
$DIMTP
 40
0.0
  9
$DIMTM
 40
0.0
  9
$DIMTXT
 40
3.175
  9
$DIMCEN
 40
2.5
  9
$DIMTSZ
 40
0.0
  9
$DIMTOL
 70
     0
  9
$DIMLIM
 70
     0
  9
$DIMTIH
 70
     1
  9
$DIMTOH
 70
     1
  9
$DIMSE1
 70
     0
  9
$DIMSE2
 70
     0
  9
$DIMTAD
 70
     0
  9
$DIMZIN
 70
     1
  9
$DIMBLK
  1

  9
$DIMASO
 70
     1
  9
$DIMSHO
 70
     1
  9
$DIMPOST
  1

  9
$DIMAPOST
  1

  9
$DIMALT
 70
     0
  9
$DIMALTD
 70
     3
  9
$DIMALTF
 40
0.0393700787
  9
$DIMLFAC
 40
1.0
  9
$DIMTOFL
 70
     1
  9
$DIMTVP
 40
0.0
  9
$DIMTIX
 70
     0
  9
$DIMSOXD
 70
     0
  9
$DIMSAH
 70
     0
  9
$DIMBLK1
  1

  9
$DIMBLK2
  1

  9
$DIMSTYLE
  2
ISO-25
  9
$DIMCLRD
 70
     0
  9
$DIMCLRE
 70
     0
  9
$DIMCLRT
 70
     0
  9
$DIMTFAC
 40
1.0
  9
$DIMGAP
 40
1.524
  9
$DIMJUST
 70
     0
  9
$DIMSD1
 70
     0
  9
$DIMSD2
 70
     0
  9
$DIMTOLJ
 70
     0
  9
$DIMTZIN
 70
     1
  9
$DIMALTZ
 70
     0
  9
$DIMALTTZ
 70
     0
  9
$DIMUPT
 70
     0
  9
$DIMDEC
 70
     2
  9
$DIMTDEC
 70
     2
  9
$DIMALTU
 70
     2
  9
$DIMALTTD
 70
     3
  9
$DIMTXSTY
  7
Standard
  9
$DIMAUNIT
 70
     0
  9
$DIMADEC
 70
     2
  9
$DIMALTRND
 40
0.0
  9
$DIMAZIN
 70
     0
  9
$DIMDSEP
 70
    44
  9
$DIMATFIT
 70
     3
  9
$DIMFRAC
 70
     0
  9
$DIMLDRBLK
  1

  9
$DIMLUNIT
 70
     2
  9
$DIMLWD
 70
    -2
  9
$DIMLWE
 70
    -2
  9
$DIMTMOVE
 70
     0
  9
$LUNITS
 70
     2
  9
$LUPREC
 70
     2
  9
$SKETCHINC
 40
1.0
  9
$FILLETRAD
 40
10.0
  9
$AUNITS
 70
     0
  9
$AUPREC
 70
     2
  9
$MENU
  1
.
  9
$ELEVATION
 40
0.0
  9
$PELEVATION
 40
0.0
  9
$THICKNESS
 40
0.0
  9
$LIMCHECK
 70
     0
  9
$CHAMFERA
 40
0.0
  9
$CHAMFERB
 40
0.0
  9
$CHAMFERC
 40
0.0
  9
$CHAMFERD
 40
0.0
  9
$SKPOLY
 70
     0
  9
$TDCREATE
 40
2461042.461709421
  9
$TDUCREATE
 40
2461042.232542755
  9
$TDUPDATE
 40
2461042.461810903
  9
$TDUUPDATE
 40
2461042.232644236
  9
$TDINDWG
 40
0.0000000116
  9
$TDUSRTIMER
 40
0.0000000116
  9
$USRTIMER
 70
     1
  9
$ANGBASE
 50
0.0
  9
$ANGDIR
 70
     0
  9
$PDMODE
 70
     0
  9
$PDSIZE
 40
-1.0
  9
$PLINEWID
 40
0.0
  9
$SPLFRAME
 70
     0
  9
$SPLINETYPE
 70
     6
  9
$SPLINESEGS
 70
     8
  9
$HANDSEED
  5
F8
  9
$SURFTAB1
 70
     6
  9
$SURFTAB2
 70
     6
  9
$SURFTYPE
 70
     6
  9
$SURFU
 70
     6
  9
$SURFV
 70
     6
  9
$UCSBASE
  2

  9
$UCSNAME
  2

  9
$UCSORG
 10
0.0
 20
0.0
 30
0.0
  9
$UCSXDIR
 10
1.0
 20
0.0
 30
0.0
  9
$UCSYDIR
 10
0.0
 20
1.0
 30
0.0
  9
$UCSORTHOREF
  2

  9
$UCSORTHOVIEW
 70
     0
  9
$UCSORGTOP
 10
0.0
 20
0.0
 30
0.0
  9
$UCSORGBOTTOM
 10
0.0
 20
0.0
 30
0.0
  9
$UCSORGLEFT
 10
0.0
 20
0.0
 30
0.0
  9
$UCSORGRIGHT
 10
0.0
 20
0.0
 30
0.0
  9
$UCSORGFRONT
 10
0.0
 20
0.0
 30
0.0
  9
$UCSORGBACK
 10
0.0
 20
0.0
 30
0.0
  9
$PUCSBASE
  2

  9
$PUCSNAME
  2

  9
$PUCSORG
 10
0.0
 20
0.0
 30
0.0
  9
$PUCSXDIR
 10
1.0
 20
0.0
 30
0.0
  9
$PUCSYDIR
 10
0.0
 20
1.0
 30
0.0
  9
$PUCSORTHOREF
  2

  9
$PUCSORTHOVIEW
 70
     0
  9
$PUCSORGTOP
 10
0.0
 20
0.0
 30
0.0
  9
$PUCSORGBOTTOM
 10
0.0
 20
0.0
 30
0.0
  9
$PUCSORGLEFT
 10
0.0
 20
0.0
 30
0.0
  9
$PUCSORGRIGHT
 10
0.0
 20
0.0
 30
0.0
  9
$PUCSORGFRONT
 10
0.0
 20
0.0
 30
0.0
  9
$PUCSORGBACK
 10
0.0
 20
0.0
 30
0.0
  9
$USERI1
 70
     0
  9
$USERI2
 70
     0
  9
$USERI3
 70
     0
  9
$USERI4
 70
     0
  9
$USERI5
 70
     0
  9
$USERR1
 40
0.0
  9
$USERR2
 40
0.0
  9
$USERR3
 40
0.0
  9
$USERR4
 40
0.0
  9
$USERR5
 40
0.0
  9
$WORLDVIEW
 70
     1
  9
$SHADEDGE
 70
     3
  9
$SHADEDIF
 70
    70
  9
$TILEMODE
 70
     1
  9
$MAXACTVP
 70
    64
  9
$PINSBASE
 10
0.0
 20
0.0
 30
0.0
  9
$PLIMCHECK
 70
     0
  9
$PEXTMIN
 10
93.8403846154
 20
41.5476516637
 30
0.0
  9
$PEXTMAX
 10
106.0519230769
 20
56.689959356
 30
0.0
  9
$PLIMMIN
 10
92.2873274162
 20
40.9652552139
  9
$PLIMMAX
 10
115.3502268245
 20
57.2723558057
  9
$UNITMODE
 70
     0
  9
$VISRETAIN
 70
     1
  9
$PLINEGEN
 70
     0
  9
$PSLTSCALE
 70
     1
  9
$TREEDEPTH
 70
  3020
  9
$CMLSTYLE
  2
Standard
  9
$CMLJUST
 70
     0
  9
$CMLSCALE
 40
20.0
  9
$PROXYGRAPHICS
 70
     1
  9
$MEASUREMENT
 70
     1
  9
$CELWEIGHT
370
    -1
  9
$ENDCAPS
280
     0
  9
$JOINSTYLE
280
     0
  9
$LWDISPLAY
290
     1
  9
$INSUNITS
 70
     4
  9
$HYPERLINKBASE
  1

  9
$STYLESHEET
  1

  9
$XEDIT
290
     1
  9
$CEPSNTYPE
380
     0
  9
$PSTYLEMODE
290
     1
  9
$FINGERPRINTGUID
  2
{f55fde65-7edc-4ab6-af6e-3131fb18f830}
  9
$VERSIONGUID
  2
{FAEB1C32-E019-11D5-929B-00C0DF256EC4}
  9
$EXTNAMES
290
     1
  9
$PSVPSCALE
 40
0.0
  9
$OLESTARTUP
290
     0
  0
ENDSEC
  0
SECTION
  2
CLASSES
  0
CLASS
  1
ACDBDICTIONARYWDFLT
  2
AcDbDictionaryWithDefault
  3
ObjectDBX Classes
 90
        0
280
     0
281
     0
  0
CLASS
  1
VISUALSTYLE
  2
AcDbVisualStyle
  3
ObjectDBX Classes
 90
     4095
280
     0
281
     0
  0
CLASS
  1
MATERIAL
  2
AcDbMaterial
  3
ObjectDBX Classes
 90
     1153
280
     0
281
     0
  0
CLASS
  1
SCALE
  2
AcDbScale
  3
ObjectDBX Classes
 90
     1153
280
     0
281
     0
  0
CLASS
  1
TABLESTYLE
  2
AcDbTableStyle
  3
ObjectDBX Classes
 90
     4095
280
     0
281
     0
  0
CLASS
  1
MLEADERSTYLE
  2
AcDbMLeaderStyle
  3
ACDB_MLEADERSTYLE_CLASS
 90
     4095
280
     0
281
     0
  0
CLASS
  1
SUN
  2
AcDbSun
  3
SCENEOE
 90
     1153
280
     0
281
     0
  0
CLASS
  1
ACDBPLACEHOLDER
  2
AcDbPlaceHolder
  3
ObjectDBX Classes
 90
        0
280
     0
281
     0
  0
CLASS
  1
LAYOUT
  2
AcDbLayout
  3
ObjectDBX Classes
 90
        0
280
     0
281
     0
  0
ENDSEC
  0
SECTION
  2
TABLES
  0
TABLE
  2
VPORT
  5
8
330
0
100
AcDbSymbolTable
 70
     1
  0
VPORT
  5
29
330
8
100
AcDbSymbolTableRecord
100
AcDbViewportTableRecord
  2
*Active
 70
     0
 10
0.0
 20
0.0
 11
1.0
 21
1.0
 12
140.0
 22
-57.5
 13
0.0
 23
0.0
 14
10.0
 24
10.0
 15
10.0
 25
10.0
 16
0.0
 26
0.0
 36
1.0
 17
0.0
 27
0.0
 37
0.0
 40
117.3
 41
2.4347826087
 42
50.0
 43
0.0
 44
0.0
 50
0.0
 51
0.0
 71
     0
 72
   100
 73
     1
 74
     3
 75
     0
 76
     0
 77
     0
 78
     0
281
     0
 65
     1
110
0.0
120
0.0
130
0.0
111
1.0
121
0.0
131
0.0
112
0.0
122
1.0
132
0.0
 79
     0
146
0.0
  0
ENDTAB
  0
TABLE
  2
LTYPE
  5
5
330
0
100
AcDbSymbolTable
 70
     6
  0
LTYPE
  5
14
330
5
100
AcDbSymbolTableRecord
100
AcDbLinetypeTableRecord
  2
ByBlock
 70
     0
  3

 72
    65
 73
     0
 40
0.0
  0
LTYPE
  5
15
330
5
100
AcDbSymbolTableRecord
100
AcDbLinetypeTableRecord
  2
ByLayer
 70
     0
  3

 72
    65
 73
     0
 40
0.0
  0
LTYPE
  5
16
330
5
100
AcDbSymbolTableRecord
100
AcDbLinetypeTableRecord
  2
Continuous
 70
     0
  3
Solid line
 72
    65
 73
     0
 40
0.0
  0
LTYPE
  5
6E
330
5
100
AcDbSymbolTableRecord
100
AcDbLinetypeTableRecord
  2
HIDDEN
 70
     0
  3
Hidden __ __ __ __ __ __ __ __ __ __ __ __ __ __
 72
    65
 73
     2
 40
1.905
 49
1.27
 74
     0
 49
-0.635
 74
     0
  0
LTYPE
  5
6F
330
5
100
AcDbSymbolTableRecord
100
AcDbLinetypeTableRecord
  2
PHANTOM
 70
     0
  3
Phantom ______  __  __  ______  __  __  ______
 72
    65
 73
     6
 40
12.7
 49
6.35
 74
     0
 49
-1.27
 74
     0
 49
1.27
 74
     0
 49
-1.27
 74
     0
 49
1.27
 74
     0
 49
-1.27
 74
     0
  0
LTYPE
  5
70
330
5
100
AcDbSymbolTableRecord
100
AcDbLinetypeTableRecord
  2
CENTER
 70
     0
  3
Center ____ _ ____ _ ____ _ ____ _ ____ _ ____
 72
    65
 73
     4
 40
10.16
 49
6.35
 74
     0
 49
-1.27
 74
     0
 49
1.27
 74
     0
 49
-1.27
 74
     0
  0
LTYPE
  5
71
330
5
100
AcDbSymbolTableRecord
100
AcDbLinetypeTableRecord
  2
CENTERX2
 70
     0
  3
Center (2x) ________  __  ________  __  _____
 72
    65
 73
     4
 40
20.32
 49
12.7
 74
     0
 49
-2.54
 74
     0
 49
2.54
 74
     0
 49
-2.54
 74
     0
  0
LTYPE
  5
72
330
5
100
AcDbSymbolTableRecord
100
AcDbLinetypeTableRecord
  2
DOT2
 70
     0
  3
Dot (.5x) ........................................
 72
    65
 73
     2
 40
0.635
 49
0.0
 74
     0
 49
-0.635
 74
     0
  0
ENDTAB
  0
TABLE
  2
LAYER
  5
2
330
0
100
AcDbSymbolTable
 70
     1
  0
LAYER
  5
10
330
2
100
AcDbSymbolTableRecord
100
AcDbLayerTableRecord
  2
0
 70
     0
 62
     7
  6
Continuous
370
    -3
390
F
  0
ENDTAB
  0
TABLE
  2
STYLE
  5
3
330
0
100
AcDbSymbolTable
 70
     1
  0
STYLE
  5
11
330
3
100
AcDbSymbolTableRecord
100
AcDbTextStyleTableRecord
  2
Standard
 70
     0
 40
0.0
 41
1.0
 50
0.0
 71
     0
 42
3.175
  3
txt
  4

  0
ENDTAB
  0
TABLE
  2
VIEW
  5
6
330
0
100
AcDbSymbolTable
 70
     0
  0
ENDTAB
  0
TABLE
  2
UCS
  5
7
330
0
100
AcDbSymbolTable
 70
     0
  0
ENDTAB
  0
TABLE
  2
APPID
  5
9
330
0
100
AcDbSymbolTable
 70
     1
  0
APPID
  5
12
330
9
100
AcDbSymbolTableRecord
100
AcDbRegAppTableRecord
  2
ACAD
 70
     0
  0
ENDTAB
  0
TABLE
  2
DIMSTYLE
  5
A
330
0
100
AcDbSymbolTable
 70
     1
100
AcDbDimStyleTable
  0
DIMSTYLE
105
27
330
A
100
AcDbSymbolTableRecord
100
AcDbDimStyleTableRecord
  2
ISO-25
 70
     0
 41
2.5
 42
0.625
 43
3.75
 44
1.25
 73
     0
 74
     0
 77
     1
 78
     8
140
2.5
141
2.5
143
0.0393700787
147
0.625
171
     3
172
     1
178
     0
271
     2
272
     2
274
     3
278
    44
283
     0
284
     8
340
11
  0
ENDTAB
  0
TABLE
  2
BLOCK_RECORD
  5
1
330
0
100
AcDbSymbolTable
 70
     1
  0
BLOCK_RECORD
  5
1F
330
1
100
AcDbSymbolTableRecord
100
AcDbBlockTableRecord
  2
*Model_Space
340
22
  0
BLOCK_RECORD
  5
1B
330
1
100
AcDbSymbolTableRecord
100
AcDbBlockTableRecord
  2
*Paper_Space
340
1E
  0
BLOCK_RECORD
  5
23
330
1
100
AcDbSymbolTableRecord
100
AcDbBlockTableRecord
  2
*Paper_Space0
340
26
  0
ENDTAB
  0
ENDSEC
  0
SECTION
  2
BLOCKS
  0
BLOCK
  5
20
330
1F
100
AcDbEntity
  8
0
100
AcDbBlockBegin
  2
*Model_Space
 70
     0
 10
0.0
 20
0.0
 30
0.0
  3
*Model_Space
  1

  0
ENDBLK
  5
21
330
1F
100
AcDbEntity
  8
0
100
AcDbBlockEnd
  0
BLOCK
  5
1C
330
1B
100
AcDbEntity
 67
     1
  8
0
100
AcDbBlockBegin
  2
*Paper_Space
 70
     0
 10
0.0
 20
0.0
 30
0.0
  3
*Paper_Space
  1

  0
ENDBLK
  5
1D
330
1B
100
AcDbEntity
 67
     1
  8
0
100
AcDbBlockEnd
  0
BLOCK
  5
24
330
23
100
AcDbEntity
  8
0
100
AcDbBlockBegin
  2
*Paper_Space0
 70
     0
 10
0.0
 20
0.0
 30
0.0
  3
*Paper_Space0
  1

  0
SPLINE
  5
EF
330
23
100
AcDbEntity
  8
0
  6
Continuous
 62
     7
370
    25
100
AcDbSpline
210
0.0
220
0.0
230
1.0
 70
     8
 71
     3
 72
    23
 73
    19
 74
     0
 42
0.00000001
 43
0.00000001
 40
0.0
 40
0.0
 40
0.0
 40
0.0
 40
0.0645039992970557
 40
0.1268993215900403
 40
0.1877465401000117
 40
0.2481497329298262
 40
0.3085860647627419
 40
0.3695830050869943
 40
0.4318269653810499
 40
0.4961797225241573
 40
0.5606678546118802
 40
0.6235044551176637
 40
0.6852604113304273
 40
0.7465368217511669
 40
0.8083273517367088
 40
0.8704861878877684
 40
0.9343168833592456
 40
1.0
 40
1.0
 40
1.0
 40
1.0
 10
157.3403846153847
 20
49.19512762519226
 30
0.0
 10
157.3473235068964
 20
49.47033056984866
 30
0.0
 10
157.3609744531172
 20
50.01173989883689
 30
0.0
 10
157.4804863704592
 20
50.80513508198207
 30
0.0
 10
157.6645745456953
 20
51.56761561194007
 30
0.0
 10
157.9359410687294
 20
52.29500943252335
 30
0.0
 10
158.2753065570803
 20
52.99356902907805
 30
0.0
 10
158.6945529170038
 20
53.65709742744822
 30
0.0
 10
159.1912630827438
 20
54.28577395791345
 30
0.0
 10
159.7554888489622
 20
54.87520963616297
 30
0.0
 10
160.3722881520257
 20
55.41321322780948
 30
0.0
 10
161.0272420106391
 20
55.88545406629202
 30
0.0
 10
161.7133337885343
 20
56.28501556890276
 30
0.0
 10
162.4323526490122
 20
56.61052603430369
 30
0.0
 10
163.1804599685862
 20
56.86846160718111
 30
0.0
 10
163.9624763535185
 20
57.04523815660389
 30
0.0
 10
164.773192426395
 20
57.16158170653481
 30
0.0
 10
165.3258092780522
 20
57.17275456376269
 30
0.0
 10
165.6060697115385
 20
57.17842089442303
 30
0.0
  0
SPLINE
  5
F0
330
23
100
AcDbEntity
  8
0
  6
Continuous
 62
     7
370
    25
100
AcDbSpline
210
0.0
220
0.0
230
1.0
 70
     8
 71
     3
 72
    31
 73
    27
 74
     0
 42
0.00000001
 43
0.00000001
 40
0.0
 40
0.0
 40
0.0
 40
0.0
 40
0.0436332182657582
 40
0.0865377766972006
 40
0.129177336089893
 40
0.171436323663828
 40
0.2134158945709088
 40
0.2552659545538498
 40
0.2973694811566246
 40
0.3399407478985563
 40
0.3823474587518113
 40
0.4239529468152701
 40
0.4648711632610171
 40
0.5055722941182728
 40
0.5460025771083161
 40
0.5865679748069136
 40
0.6270647991481674
 40
0.6682706840331737
 40
0.7095492248503334
 40
0.7504281535131891
 40
0.7910961944485935
 40
0.8320271447794343
 40
0.8731359553359679
 40
0.9146107643654491
 40
0.9569559864804379
 40
1.0
 40
1.0
 40
1.0
 40
1.0
 10
165.6060697115385
 20
57.17842089442303
 30
0.0
 10
165.7944442845992
 20
57.17583279208712
 30
0.0
 10
166.1680476397235
 20
57.17069980783989
 30
0.0
 10
166.7237389828151
 20
57.11899986677077
 30
0.0
 10
167.2694192209507
 20
57.03609497750905
 30
0.0
 10
167.8043229728706
 20
56.91672955198089
 30
0.0
 10
168.3278431605597
 20
56.76733832842235
 30
0.0
 10
168.8421648746568
 20
56.5898591233879
 30
0.0
 10
169.3418098548246
 20
56.36843714334108
 30
0.0
 10
169.8330812577138
 20
56.12379186403238
 30
0.0
 10
170.3033236589186
 20
55.84489900660073
 30
0.0
 10
170.7522261989587
 20
55.54533422059796
 30
0.0
 10
171.1684740321688
 20
55.21349072787732
 30
0.0
 10
171.5624774066171
 20
54.86341806245927
 30
0.0
 10
171.9305652567053
 20
54.48805769055075
 30
0.0
 10
172.2702484422736
 20
54.08789762592696
 30
0.0
 10
172.580383161548
 20
53.66041204870075
 30
0.0
 10
172.8659461809485
 20
53.2125443403144
 30
0.0
 10
173.1206896539479
 20
52.74447902212773
 30
0.0
 10
173.3426444644867
 20
52.26262463215159
 30
0.0
 10
173.5309461806619
 20
51.76816767974142
 30
0.0
 10
173.6829570426612
 20
51.2603949835357
 30
0.0
 10
173.8020764841081
 20
50.74027093522587
 30
0.0
 10
173.8841543338929
 20
50.2070991098048
 30
0.0
 10
173.9415679785287
 20
49.66194611710866
 30
0.0
 10
173.9458954700733
 20
49.29322598680267
 30
0.0
 10
173.948076923077
 20
49.10735719249996
 30
0.0
  0
SPLINE
  5
F1
330
23
100
AcDbEntity
  8
0
  6
Continuous
 62
     7
370
    25
100
AcDbSpline
210
0.0
220
0.0
230
1.0
 70
     8
 71
     3
 72
    31
 73
    27
 74
     0
 42
0.00000001
 43
0.00000001
 40
0.0
 40
0.0
 40
0.0
 40
0.0
 40
0.0429150821010495
 40
0.0851299705846993
 40
0.1264733185549986
 40
0.1674530378853887
 40
0.207976332894988
 40
0.2482493780637605
 40
0.2887499869834435
 40
0.3296698569108727
 40
0.3705372867119751
 40
0.4111285639171181
 40
0.4518189126736378
 40
0.4924058769342636
 40
0.5334858617420223
 40
0.5752630624415518
 40
0.61744061280219
 40
0.6606716882923648
 40
0.7039402042434877
 40
0.7468675221598705
 40
0.789079300394722
 40
0.8311040424574033
 40
0.8732379898547736
 40
0.9151657696593324
 40
0.9573806581429821
 40
1.0
 40
1.0
 40
1.0
 40
1.0
 10
173.948076923077
 20
49.10735719249996
 30
0.0
 10
173.9458937224386
 20
48.9227599478388
 30
0.0
 10
173.9415629418128
 20
48.55657730904021
 30
0.0
 10
173.8841817585002
 20
48.01522628338781
 30
0.0
 10
173.8019897694873
 20
47.48589094665171
 30
0.0
 10
173.6835384585864
 20
46.97064939034468
 30
0.0
 10
173.5308654789683
 20
46.4693702753385
 30
0.0
 10
173.342611580709
 20
45.98252440570776
 30
0.0
 10
173.1206230221443
 20
45.50829808675476
 30
0.0
 10
172.8658525437241
 20
45.04786341308435
 30
0.0
 10
172.5794721330882
 20
44.60604091060965
 30
0.0
 10
172.2665391802103
 20
44.18366206529267
 30
0.0
 10
171.9216506424707
 20
43.78865900187366
 30
0.0
 10
171.5546604213719
 20
43.41128016715172
 30
0.0
 10
171.1564017455093
 20
43.05957422514354
 30
0.0
 10
170.7286786591642
 20
42.73342450556466
 30
0.0
 10
170.2766837844911
 20
42.42495996979202
 30
0.0
 10
169.798108403063
 20
42.1466908403451
 30
0.0
 10
169.3042020263224
 20
41.8897105165775
 30
0.0
 10
168.7973960550717
 20
41.66954148517627
 30
0.0
 10
168.2834319557316
 20
41.48245894965355
 30
0.0
 10
167.7636167157526
 20
41.32289089702115
 30
0.0
 10
167.233575076527
 20
41.20637004723676
 30
0.0
 10
166.6968885223746
 20
41.12348594728442
 30
0.0
 10
166.1542995721275
 20
41.06580044692161
 30
0.0
 10
165.789392904775
 20
41.06140055803233
 30
0.0
 10
165.6060697115385
 20
41.05919012519227
 30
0.0
  0
SPLINE
  5
F2
330
23
100
AcDbEntity
  8
0
  6
Continuous
 62
     7
370
    25
100
AcDbSpline
210
0.0
220
0.0
230
1.0
 70
     8
 71
     3
 72
    31
 73
    27
 74
     0
 42
0.00000001
 43
0.00000001
 40
0.0
 40
0.0
 40
0.0
 40
0.0
 40
0.0420233285259241
 40
0.0836449111687105
 40
0.1249837954173939
 40
0.166247461172895
 40
0.2077015560969886
 40
0.2496310707996497
 40
0.2917417703321296
 40
0.334742875353199
 40
0.3774601685508648
 40
0.4195563188419392
 40
0.461044176333034
 40
0.502096283944396
 40
0.5428907140756001
 40
0.5838008186265057
 40
0.6248635833101934
 40
0.6662246890691702
 40
0.7073991864779365
 40
0.7485566775366934
 40
0.7896545909521798
 40
0.8307397264898317
 40
0.8720701422586045
 40
0.9139933952421324
 40
0.9564981300675878
 40
0.9999999999999999
 40
0.9999999999999999
 40
0.9999999999999999
 40
0.9999999999999999
 10
165.6060697115385
 20
41.05919012519227
 30
0.0
 10
165.4252872060934
 20
41.06139388499921
 30
0.0
 10
165.0654504882692
 20
41.06578033651923
 30
0.0
 10
164.5305017981262
 20
41.12356015984759
 30
0.0
 10
164.0025885582756
 20
41.205909984106
 30
0.0
 10
163.4816017441701
 20
41.32337511855298
 30
0.0
 10
162.969721226271
 20
41.48341717722084
 30
0.0
 10
162.4621756621716
 20
41.66760840608033
 30
0.0
 10
161.9635933261146
 20
41.89196891346396
 30
0.0
 10
161.4756201854965
 20
42.14545749010448
 30
0.0
 10
161.0025538479161
 20
42.42603090190773
 30
0.0
 10
160.5561704299981
 20
42.73612009105597
 30
0.0
 10
160.1353143249954
 20
43.06845307917337
 30
0.0
 10
159.7410159736427
 20
43.42380545118423
 30
0.0
 10
159.3744331650929
 20
43.80398685521899
 30
0.0
 10
159.0283507186143
 20
44.20323368608837
 30
0.0
 10
158.7166405670836
 20
44.63295755019737
 30
0.0
 10
158.4309690703542
 20
45.08150562185857
 30
0.0
 10
158.1753298254161
 20
45.54829365670722
 30
0.0
 10
157.9480069661407
 20
46.02840733562261
 30
0.0
 10
157.7620571467851
 20
46.52576303080208
 30
0.0
 10
157.6104062130099
 20
47.03496494560997
 30
0.0
 10
157.4846772425439
 20
47.55520661892115
 30
0.0
 10
157.405026884259
 20
48.09043459617465
 30
0.0
 10
157.3466121849742
 20
48.63795942022156
 30
0.0
 10
157.3424764547251
 20
49.00797494007977
 30
0.0
 10
157.3403846153847
 20
49.19512762519226
 30
0.0
  0
VIEWPORT
  5
F5
330
23
100
AcDbEntity
  8
0
100
AcDbViewport
 10
0.0
 20
0.0
 30
0.0
 40
205.6
 41
156.0
 68
     1
 69
     1
 12
140.0
 22
-57.5
 13
0.0
 23
0.0
 14
10.0
 24
10.0
 15
10.0
 25
10.0
 16
0.0
 26
0.0
 36
1.0
 17
0.0
 27
0.0
 37
0.0
 42
50.0
 43
0.0
 44
0.0
 45
216.7003891051
 50
0.0
 51
0.0
 72
   100
 90
   557152
  1

281
     0
 71
     1
 74
     0
110
0.0
120
0.0
130
0.0
111
1.0
121
0.0
131
0.0
112
0.0
122
1.0
132
0.0
 79
     0
146
0.0
  0
ENDBLK
  5
25
330
23
100
AcDbEntity
  8
0
100
AcDbBlockEnd
  0
ENDSEC
  0
SECTION
  2
ENTITIES
  0
CIRCLE
  5
73
330
1F
100
AcDbEntity
  8
0
  6
Continuous
 62
     7
370
    25
100
AcDbCircle
 10
30.0
 20
-6.0
 30
0.0
 40
2.0
  0
CIRCLE
  5
74
330
1F
100
AcDbEntity
  8
0
  6
Continuous
 62
     7
370
    25
100
AcDbCircle
 10
74.0
 20
-6.0
 30
0.0
 40
2.000000000000014
  0
CIRCLE
  5
75
330
1F
100
AcDbEntity
  8
0
  6
Continuous
 62
     7
370
    25
100
AcDbCircle
 10
118.0
 20
-6.0
 30
0.0
 40
1.999999999999986
  0
CIRCLE
  5
76
330
1F
100
AcDbEntity
  8
0
  6
Continuous
 62
     7
370
    25
100
AcDbCircle
 10
162.0
 20
-6.0
 30
0.0
 40
2.0
  0
CIRCLE
  5
77
330
1F
100
AcDbEntity
  8
0
  6
Continuous
 62
     7
370
    25
100
AcDbCircle
 10
206.0
 20
-6.0
 30
0.0
 40
2.000000000000028
  0
CIRCLE
  5
78
330
1F
100
AcDbEntity
  8
0
  6
Continuous
 62
     7
370
    25
100
AcDbCircle
 10
250.0
 20
-6.0
 30
0.0
 40
1.999999999999972
  0
CIRCLE
  5
79
330
1F
100
AcDbEntity
  8
0
  6
Continuous
 62
     7
370
    25
100
AcDbCircle
 10
162.0
 20
-109.0
 30
0.0
 40
2.0
  0
CIRCLE
  5
7A
330
1F
100
AcDbEntity
  8
0
  6
Continuous
 62
     7
370
    25
100
AcDbCircle
 10
206.0
 20
-109.0
 30
0.0
 40
2.0
  0
CIRCLE
  5
7B
330
1F
100
AcDbEntity
  8
0
  6
Continuous
 62
     7
370
    25
100
AcDbCircle
 10
250.0
 20
-109.0
 30
0.0
 40
2.0
  0
CIRCLE
  5
7C
330
1F
100
AcDbEntity
  8
0
  6
Continuous
 62
     7
370
    25
100
AcDbCircle
 10
118.0
 20
-109.0
 30
0.0
 40
2.000000000000028
  0
CIRCLE
  5
7D
330
1F
100
AcDbEntity
  8
0
  6
Continuous
 62
     7
370
    25
100
AcDbCircle
 10
74.0
 20
-109.0
 30
0.0
 40
2.000000000000028
  0
CIRCLE
  5
7E
330
1F
100
AcDbEntity
  8
0
  6
Continuous
 62
     7
370
    25
100
AcDbCircle
 10
30.0
 20
-109.0
 30
0.0
 40
2.000000000000014
  0
SPLINE
  5
7F
330
1F
100
AcDbEntity
  8
0
  6
Continuous
 62
     7
370
    25
100
AcDbSpline
210
0.0
220
0.0
230
1.0
 70
     8
 71
     3
 72
    15
 73
    11
 74
     0
 42
0.00000001
 43
0.00000001
 40
0.0
 40
0.0
 40
0.0
 40
0.0
 40
0.1590042985173774
 40
0.3046460998968143
 40
0.4385469045795928
 40
0.5623222987759275
 40
0.6774325425257294
 40
0.7868973929387538
 40
0.8936108891042693
 40
1.0
 40
1.0
 40
1.0
 40
1.0
 10
179.2219350961539
 20
-51.81848186048076
 30
0.0
 10
179.3717129303317
 20
-51.56775999384007
 30
0.0
 10
179.6586814806084
 20
-51.0873865728499
 30
0.0
 10
180.1373881639956
 20
-50.43828209565896
 30
0.0
 10
180.6334115804843
 20
-49.88658235672791
 30
0.0
 10
181.1504249530892
 20
-49.43549682140393
 30
0.0
 10
181.6852724707267
 20
-49.0803564521062
 30
0.0
 10
182.2414456774936
 20
-48.82888430518095
 30
0.0
 10
182.8170703329372
 20
-48.67204306780265
 30
0.0
 10
183.2088135612753
 20
-48.65299259669801
 30
0.0
 10
183.4043870192308
 20
-48.64348186048076
 30
0.0
  0
SPLINE
  5
80
330
1F
100
AcDbEntity
  8
0
  6
Continuous
 62
     7
370
    25
100
AcDbSpline
210
0.0
220
0.0
230
1.0
 70
     8
 71
     3
 72
    19
 73
    15
 74
     0
 42
0.00000001
 43
0.00000001
 40
0.0
 40
0.0
 40
0.0
 40
0.0
 40
0.0912636048966255
 40
0.1809303110850805
 40
0.2700882198317212
 40
0.3601561333877249
 40
0.4483425324981548
 40
0.5326658421383302
 40
0.6138337041070483
 40
0.6939815272835586
 40
0.7727159770890036
 40
0.849335172062247
 40
0.9239673265752318
 40
1.0
 40
1.0
 40
1.0
 40
1.0
 10
183.4043870192308
 20
-48.64348186048076
 30
0.0
 10
183.5714112171576
 20
-48.64813372086868
 30
0.0
 10
183.9025370818862
 20
-48.65735604501489
 30
0.0
 10
184.3900115757173
 20
-48.74597012474091
 30
0.0
 10
184.8634410994798
 20
-48.88210756925562
 30
0.0
 10
185.3130681134131
 20
-49.07707578218037
 30
0.0
 10
185.732688529649
 20
-49.31296096876922
 30
0.0
 10
186.1006621142669
 20
-49.59787373491615
 30
0.0
 10
186.4187759588582
 20
-49.91685894030067
 30
0.0
 10
186.6789941395736
 20
-50.27272738913738
 30
0.0
 10
186.8786383316431
 20
-50.65545358369997
 30
0.0
 10
187.0320837325778
 20
-51.04829697598412
 30
0.0
 10
187.1172376334792
 20
-51.45742875475972
 30
0.0
 10
187.1300651058648
 20
-51.73289427397415
 30
0.0
 10
187.1365384615385
 20
-51.87190734124999
 30
0.0
  0
SPLINE
  5
81
330
1F
100
AcDbEntity
  8
0
  6
Continuous
 62
     7
370
    25
100
AcDbSpline
210
0.0
220
0.0
230
1.0
 70
     8
 71
     3
 72
    11
 73
     7
 74
     0
 42
0.00000001
 43
0.00000001
 40
0.0
 40
0.0
 40
0.0
 40
0.0
 40
0.2347233736739007
 40
0.4771583189289882
 40
0.7285562842030511
 40
1.0
 40
1.0
 40
1.0
 40
1.0
 10
187.1365384615385
 20
-51.87190734124999
 30
0.0
 10
187.128513999018
 20
-52.03051682322918
 30
0.0
 10
187.1122014393158
 20
-52.35294672274374
 30
0.0
 10
186.9743258120642
 20
-52.82865054810738
 30
0.0
 10
186.7574320542448
 20
-53.29941725066804
 30
0.0
 10
186.557338236365
 20
-53.59061699616984
 30
0.0
 10
186.4534555288462
 20
-53.74179916817306
 30
0.0
  0
SPLINE
  5
82
330
1F
100
AcDbEntity
  8
0
  6
Continuous
 62
     7
370
    25
100
AcDbSpline
210
0.0
220
0.0
230
1.0
 70
     8
 71
     3
 72
    15
 73
    11
 74
     0
 42
0.00000001
 43
0.00000001
 40
0.0
 40
0.0
 40
0.0
 40
0.0
 40
0.0902792146500152
 40
0.1895299184469578
 40
0.2991978724002865
 40
0.4189258867738206
 40
0.5483762854012486
 40
0.6881363695386812
 40
0.8390835016589177
 40
1.0
 40
1.0
 40
1.0
 40
1.0
 10
186.4534555288462
 20
-53.74179916817306
 30
0.0
 10
186.3681626145204
 20
-53.85091116521411
 30
0.0
 10
186.1891008098852
 20
-54.07997815456423
 30
0.0
 10
185.8812663484861
 20
-54.42094722193772
 30
0.0
 10
185.5200450691953
 20
-54.77265604509103
 30
0.0
 10
185.1177985774618
 20
-55.14853462648668
 30
0.0
 10
184.659874193915
 20
-55.53110106274589
 30
0.0
 10
184.1606144369494
 20
-55.93859840409931
 30
0.0
 10
183.6072725760051
 20
-56.35552984488195
 30
0.0
 10
183.2191996015557
 20
-56.6351433802139
 30
0.0
 10
183.0189603365385
 20
-56.77941936048075
 30
0.0
  0
SPLINE
  5
83
330
1F
100
AcDbEntity
  8
0
  6
Continuous
 62
     7
370
    25
100
AcDbSpline
210
0.0
220
0.0
230
1.0
 70
     8
 71
     3
 72
    15
 73
    11
 74
     0
 42
0.00000001
 43
0.00000001
 40
0.0
 40
0.0
 40
0.0
 40
0.0
 40
0.1815353013762827
 40
0.3470816724816302
 40
0.4955678164315552
 40
0.6283573018772137
 40
0.7455196699921574
 40
0.8458307507576498
 40
0.9307818073847605
 40
1.0
 40
1.0
 40
1.0
 40
1.0
 10
183.0189603365385
 20
-56.77941936048075
 30
0.0
 10
182.8185325859068
 20
-56.92217781595165
 30
0.0
 10
182.4353299890918
 20
-57.19512111188414
 30
0.0
 10
181.8994339908923
 20
-57.60020185772967
 30
0.0
 10
181.4202205565097
 20
-57.97055491909347
 30
0.0
 10
180.9998196237187
 20
-58.3096667563944
 30
0.0
 10
180.6384161037421
 20
-58.61758336213847
 30
0.0
 10
180.3331621095081
 20
-58.89134785946941
 30
0.0
 10
180.0918336773164
 20
-59.13836409791004
 30
0.0
 10
179.9576368740179
 20
-59.29860911512299
 30
0.0
 10
179.8973858173077
 20
-59.37055517778845
 30
0.0
  0
SPLINE
  5
84
330
1F
100
AcDbEntity
  8
0
  6
Continuous
 62
     7
370
    25
100
AcDbSpline
210
0.0
220
0.0
230
1.0
 70
     8
 71
     3
 72
    15
 73
    11
 74
     0
 42
0.00000001
 43
0.00000001
 40
0.0
 40
0.0
 40
0.0
 40
0.0
 40
0.1335067689985208
 40
0.2625589787303722
 40
0.3882644471488771
 40
0.5126673546814267
 40
0.6337222699657596
 40
0.7553938601370955
 40
0.8775529450912782
 40
1.0
 40
1.0
 40
1.0
 40
1.0
 10
179.8973858173077
 20
-59.37055517778845
 30
0.0
 10
179.8131709639782
 20
-59.4826836783806
 30
0.0
 10
179.6475511527131
 20
-59.70319942318428
 30
0.0
 10
179.4289333229676
 20
-60.04786757760566
 30
0.0
 10
179.2431187368791
 20
-60.4006913507616
 30
0.0
 10
179.0974551862519
 20
-60.76261884217744
 30
0.0
 10
178.9747937665679
 20
-61.12856895508455
 30
0.0
 10
178.8922913150898
 20
-61.50331644953531
 30
0.0
 10
178.8406309975911
 20
-61.88517978717774
 30
0.0
 10
178.8353406137465
 20
-62.14215612628027
 30
0.0
 10
178.8326923076923
 20
-62.27079556240383
 30
0.0
  0
SPLINE
  5
85
330
1F
100
AcDbEntity
  8
0
  6
Continuous
 62
     7
370
    25
100
AcDbSpline
210
0.0
220
0.0
230
1.0
 70
     8
 71
     3
 72
    19
 73
    15
 74
     0
 42
0.00000001
 43
0.00000001
 40
0.0
 40
0.0
 40
0.0
 40
0.0
 40
0.083785370653711
 40
0.1657798879221419
 40
0.2462800078932623
 40
0.3274609277363917
 40
0.4087969540320693
 40
0.4897152412309904
 40
0.5713760321300526
 40
0.6555233211112769
 40
0.741019482799975
 40
0.8265467605037629
 40
0.9119888516548335
 40
1.0
 40
1.0
 40
1.0
 40
1.0
 10
178.8326923076923
 20
-62.27079556240383
 30
0.0
 10
178.8397963737848
 20
-62.47234333539171
 30
0.0
 10
178.8538526615522
 20
-62.87113093943519
 30
0.0
 10
178.972727476981
 20
-63.45368445941296
 30
0.0
 10
179.1603585124435
 20
-64.00987053026853
 30
0.0
 10
179.4232206878042
 20
-64.53418277525591
 30
0.0
 10
179.7620785658307
 20
-65.01296904266175
 30
0.0
 10
180.1542145120185
 20
-65.45173673609253
 30
0.0
 10
180.6212741728253
 20
-65.82059144789476
 30
0.0
 10
181.1337334508732
 20
-66.14287422284181
 30
0.0
 10
181.6946545617805
 20
-66.39512847289737
 30
0.0
 10
182.2824336217018
 20
-66.5854160934852
 30
0.0
 10
182.8980048280103
 20
-66.69323505320315
 30
0.0
 10
183.3149447464606
 20
-66.7087078165134
 30
0.0
 10
183.5265024038462
 20
-66.71655878355767
 30
0.0
  0
SPLINE
  5
86
330
1F
100
AcDbEntity
  8
0
  6
Continuous
 62
     7
370
    25
100
AcDbSpline
210
0.0
220
0.0
230
1.0
 70
     8
 71
     3
 72
    19
 73
    15
 74
     0
 42
0.00000001
 43
0.00000001
 40
0.0
 40
0.0
 40
0.0
 40
0.0
 40
0.1072327993600921
 40
0.2132518127818494
 40
0.318830447307587
 40
0.4267935306342768
 40
0.4836459507827184
 40
0.543603822021144
 40
0.6083076495640836
 40
0.6771267602600408
 40
0.750685636020497
 40
0.8287134184432885
 40
0.9121903482234529
 40
1.0
 40
1.0
 40
1.0
 40
1.0
 10
183.5265024038462
 20
-66.71655878355767
 30
0.0
 10
183.7509881497539
 20
-66.70881603842498
 30
0.0
 10
184.1974186499758
 20
-66.69341818958297
 30
0.0
 10
184.8540950947186
 20
-66.55953734054268
 30
0.0
 10
185.4863412796989
 20
-66.33800939838237
 30
0.0
 10
185.9949396210737
 20
-66.08661113139021
 30
0.0
 10
186.392990794173
 20
-65.83552442586509
 30
0.0
 10
186.6965538106657
 20
-65.60681652514738
 30
0.0
 10
187.0041702213753
 20
-65.34351771974455
 30
0.0
 10
187.3183213483719
 20
-65.0449266803618
 30
0.0
 10
187.6336840804621
 20
-64.70830364943123
 30
0.0
 10
187.9549402991054
 20
-64.33595404265388
 30
0.0
 10
188.2828412479178
 20
-63.93015336002058
 30
0.0
 10
188.4937838580208
 20
-63.64046000591389
 30
0.0
 10
188.6019230769231
 20
-63.49194940855768
 30
0.0
  0
SPLINE
  5
88
330
1F
100
AcDbEntity
  8
0
  6
Continuous
 62
     7
370
    25
100
AcDbSpline
210
0.0
220
0.0
230
1.0
 70
     8
 71
     3
 72
    19
 73
    15
 74
     0
 42
0.00000001
 43
0.00000001
 40
0.0
 40
0.0
 40
0.0
 40
0.0
 40
0.0984694310255583
 40
0.1896291011376346
 40
0.2741840894379737
 40
0.3521831609671536
 40
0.4231988731834712
 40
0.4885509460005346
 40
0.5484733460279405
 40
0.6014401636178718
 40
0.701198082425769
 40
0.7995918021381878
 40
0.8985450984822281
 40
0.9999999999999999
 40
0.9999999999999999
 40
0.9999999999999999
 40
0.9999999999999999
 10
187.0564002403846
 20
-62.32040493740383
 30
0.0
 10
186.9630773793567
 20
-62.44063052384696
 30
0.0
 10
186.7833593687214
 20
-62.67215689353866
 30
0.0
 10
186.5105117330948
 20
-62.9963950541956
 30
0.0
 10
186.2533440922717
 20
-63.29257617850512
 30
0.0
 10
185.9999769163032
 20
-63.54983351821153
 30
0.0
 10
185.7637915793245
 20
-63.78225512966486
 30
0.0
 10
185.5345545350945
 20
-63.98124466323799
 30
0.0
 10
185.3155647090739
 20
-64.14875183265029
 30
0.0
 10
185.0395198097004
 20
-64.32751463757091
 30
0.0
 10
184.6927133713985
 20
-64.50471503549035
 30
0.0
 10
184.2573689670101
 20
-64.65466073188482
 30
0.0
 10
183.8024208128912
 20
-64.74476756889993
 30
0.0
 10
183.4925609614919
 20
-64.75668137123337
 30
0.0
 10
183.3356971153846
 20
-64.76271262971152
 30
0.0
  0
SPLINE
  5
89
330
1F
100
AcDbEntity
  8
0
  6
Continuous
 62
     7
370
    25
100
AcDbSpline
210
0.0
220
0.0
230
1.0
 70
     8
 71
     3
 72
    15
 73
    11
 74
     0
 42
0.00000001
 43
0.00000001
 40
0.0
 40
0.0
 40
0.0
 40
0.0
 40
0.1430730837303631
 40
0.2759029640930138
 40
0.4023708562739963
 40
0.5284136450935986
 40
0.6503563791869535
 40
0.7658950861246924
 40
0.8807741308440207
 40
1.0
 40
1.0
 40
1.0
 40
1.0
 10
183.3356971153846
 20
-64.76271262971152
 30
0.0
 10
183.1389023291491
 20
-64.7561175199734
 30
0.0
 10
182.7594021225082
 20
-64.74339947212101
 30
0.0
 10
182.220612408837
 20
-64.60449783789076
 30
0.0
 10
181.7356869024214
 20
-64.38579371251177
 30
0.0
 10
181.3190222269011
 20
-64.07927933173393
 30
0.0
 10
180.9721109661384
 20
-63.71612650011922
 30
0.0
 10
180.7211655405751
 20
-63.29823016035431
 30
0.0
 10
180.5701253592276
 20
-62.8367716547496
 30
0.0
 10
180.5516943228412
 20
-62.51487206814416
 30
0.0
 10
180.5423076923077
 20
-62.35093378355767
 30
0.0
  0
SPLINE
  5
8A
330
1F
100
AcDbEntity
  8
0
  6
Continuous
 62
     7
370
    25
100
AcDbSpline
210
0.0
220
0.0
230
1.0
 70
     8
 71
     3
 72
    15
 73
    11
 74
     0
 42
0.00000001
 43
0.00000001
 40
0.0
 40
0.0
 40
0.0
 40
0.0
 40
0.1072852142689558
 40
0.2147458609696413
 40
0.3229385595552859
 40
0.4341161625174664
 40
0.5534123109627946
 40
0.6860729848107344
 40
0.8342559920595822
 40
1.0
 40
1.0
 40
1.0
 40
1.0
 10
180.5423076923077
 20
-62.35093378355767
 30
0.0
 10
180.5444474244206
 20
-62.2488721646446
 30
0.0
 10
180.5487303875292
 20
-62.04458203599278
 30
0.0
 10
180.608464643508
 20
-61.7427678679291
 30
0.0
 10
180.6852052768357
 20
-61.44171614909342
 30
0.0
 10
180.806813029665
 20
-61.1427803768103
 30
0.0
 10
180.9746996107737
 20
-60.84073250825443
 30
0.0
 10
181.1951634967784
 20
-60.53037133668575
 30
0.0
 10
181.4728216666504
 20
-60.20896132234176
 30
0.0
 10
181.6855122624488
 20
-59.99991547365263
 30
0.0
 10
181.7978064903846
 20
-59.88954556240383
 30
0.0
  0
SPLINE
  5
8B
330
1F
100
AcDbEntity
  8
0
  6
Continuous
 62
     7
370
    25
100
AcDbSpline
210
0.0
220
0.0
230
1.0
 70
     8
 71
     3
 72
    15
 73
    11
 74
     0
 42
0.00000001
 43
0.00000001
 40
0.0
 40
0.0
 40
0.0
 40
0.0
 40
0.0525942815291379
 40
0.1249519739750398
 40
0.2180938989285955
 40
0.3335024107325171
 40
0.4687891785044471
 40
0.6249375859645948
 40
0.801683047928229
 40
1.0
 40
1.0
 40
1.0
 40
1.0
 10
181.7978064903846
 20
-59.88954556240383
 30
0.0
 10
181.8395062459179
 20
-59.85233260760627
 30
0.0
 10
181.938575319906
 20
-59.76392314512847
 30
0.0
 10
182.1196914300033
 20
-59.61918516048183
 30
0.0
 10
182.3588658032263
 20
-59.440644356989
 30
0.0
 10
182.6498529267745
 20
-59.21973339160478
 30
0.0
 10
182.9980181384604
 20
-58.96347571922363
 30
0.0
 10
183.4033997226188
 20
-58.67514791587496
 30
0.0
 10
183.8614789227633
 20
-58.34538991756608
 30
0.0
 10
184.1865367793025
 20
-58.11484387510343
 30
0.0
 10
184.3584134615385
 20
-57.99294099509613
 30
0.0
  0
SPLINE
  5
8C
330
1F
100
AcDbEntity
  8
0
  6
Continuous
 62
     7
370
    25
100
AcDbSpline
210
0.0
220
0.0
230
1.0
 70
     8
 71
     3
 72
    19
 73
    15
 74
     0
 42
0.00000001
 43
0.00000001
 40
0.0
 40
0.0
 40
0.0
 40
0.0
 40
0.0969723103815157
 40
0.1877734389628697
 40
0.2723961390136938
 40
0.3513209973752883
 40
0.4243347744514664
 40
0.4919087840005262
 40
0.5542332197967998
 40
0.6112676582441537
 40
0.7163478449915538
 40
0.8145400858216154
 40
0.9084954561491853
 40
1.0
 40
1.0
 40
1.0
 40
1.0
 10
184.3584134615385
 20
-57.99294099509613
 30
0.0
 10
184.5651653611117
 20
-57.84249302383267
 30
0.0
 10
184.9655117594003
 20
-57.5511713791489
 30
0.0
 10
185.535148015776
 20
-57.1134803207138
 30
0.0
 10
186.0516414569779
 20
-56.6854117517595
 30
0.0
 10
186.5168054649812
 20
-56.26969934742218
 30
0.0
 10
186.9352354952033
 20
-55.86949644121665
 30
0.0
 10
187.3022893748762
 20
-55.4799882739909
 30
0.0
 10
187.6217071493372
 20
-55.10396537124913
 30
0.0
 10
187.9655826098133
 20
-54.62187749498707
 30
0.0
 10
188.3169615989176
 20
-54.02979759343677
 30
0.0
 10
188.6187218036227
 20
-53.30438318078319
 30
0.0
 10
188.8089950947681
 20
-52.57614892207829
 30
0.0
 10
188.8338772001906
 20
-52.08668999783546
 30
0.0
 10
188.8461538461539
 20
-51.84519460086536
 30
0.0
  0
SPLINE
  5
8D
330
1F
100
AcDbEntity
  8
0
  6
Continuous
 62
     7
370
    25
100
AcDbSpline
210
0.0
220
0.0
230
1.0
 70
     8
 71
     3
 72
    23
 73
    19
 74
     0
 42
0.00000001
 43
0.00000001
 40
0.0
 40
0.0
 40
0.0
 40
0.0
 40
0.0614842551968907
 40
0.1217745277022099
 40
0.1809195598139324
 40
0.240256115078271
 40
0.3001144444023517
 40
0.3611459476126114
 40
0.4235005824125858
 40
0.4886693612807185
 40
0.553954104653562
 40
0.6175812610152606
 40
0.6802384268167398
 40
0.7421873887724535
 40
0.8046632117692928
 40
0.8682589893126615
 40
0.9330202571803754
 40
1.0
 40
1.0
 40
1.0
 40
1.0
 10
188.8461538461539
 20
-51.84519460086537
 30
0.0
 10
188.842577137222
 20
-51.67440664227366
 30
0.0
 10
188.835493176629
 20
-51.33614731184623
 30
0.0
 10
188.7540630602056
 20
-50.83945896481639
 30
0.0
 10
188.6347574541062
 20
-50.35705380267949
 30
0.0
 10
188.4549405093184
 20
-49.89489474780016
 30
0.0
 10
188.2354673193609
 20
-49.44452682519455
 30
0.0
 10
187.9569767416901
 20
-49.01776382438655
 30
0.0
 10
187.6341734861893
 20
-48.60516042636329
 30
0.0
 10
187.2638754229239
 20
-48.21771885198744
 30
0.0
 10
186.8586770117441
 20
-47.86204884240971
 30
0.0
 10
186.4304129022225
 20
-47.54566066496667
 30
0.0
 10
185.9783821309666
 20
-47.28185450477216
 30
0.0
 10
185.5050368930193
 20
-47.06658492161469
 30
0.0
 10
185.0102684603709
 20
-46.8982182047932
 30
0.0
 10
184.4942432369287
 20
-46.77622815995235
 30
0.0
 10
183.9561106115765
 20
-46.7013577905517
 30
0.0
 10
183.5903479904463
 20
-46.6935866888658
 30
0.0
 10
183.4043870192308
 20
-46.6896357066346
 30
0.0
  0
SPLINE
  5
8E
330
1F
100
AcDbEntity
  8
0
  6
Continuous
 62
     7
370
    25
100
AcDbSpline
210
0.0
220
0.0
230
1.0
 70
     8
 71
     3
 72
    23
 73
    19
 74
     0
 42
0.00000001
 43
0.00000001
 40
0.0
 40
0.0
 40
0.0
 40
0.0
 40
0.0572082694335095
 40
0.1136960596574911
 40
0.1691779164171943
 40
0.2241592165805428
 40
0.2787198783810424
 40
0.3337942174469904
 40
0.3892414593400018
 40
0.4458220733936213
 40
0.50370428110902
 40
0.5642938918193628
 40
0.6279754158952239
 40
0.6950382596840523
 40
0.7653727258510126
 40
0.8396114430907361
 40
0.9175377500777891
 40
0.9999999999999999
 40
0.9999999999999999
 40
0.9999999999999999
 40
0.9999999999999999
 10
183.4043870192308
 20
-46.6896357066346
 30
0.0
 10
183.2605032238629
 20
-46.69241799504336
 30
0.0
 10
182.9745477012805
 20
-46.69794753180513
 30
0.0
 10
182.5515860927995
 20
-46.74683135810292
 30
0.0
 10
182.1371691858785
 20
-46.81599430764923
 30
0.0
 10
181.7364971650928
 20
-46.92579888852367
 30
0.0
 10
181.3444078245855
 20
-47.05902357785282
 30
0.0
 10
180.9626064480942
 20
-47.22306221670869
 30
0.0
 10
180.5909079978215
 20
-47.41964298458654
 30
0.0
 10
180.2272294396381
 20
-47.644405904351
 30
0.0
 10
179.8724957179622
 20
-47.90597734261861
 30
0.0
 10
179.5300340425208
 20
-48.2106330875179
 30
0.0
 10
179.1886080470842
 20
-48.54997076468482
 30
0.0
 10
178.8582952185339
 20
-48.9332054024106
 30
0.0
 10
178.5324142473837
 20
-49.35414553910793
 30
0.0
 10
178.2173903326208
 20
-49.81672952302821
 30
0.0
 10
177.9067026978249
 20
-50.31843769134493
 30
0.0
 10
177.7117642229363
 20
-50.67148908647709
 30
0.0
 10
177.6115384615385
 20
-50.85300710086537
 30
0.0
  0
SPLINE
  5
90
330
1F
100
AcDbEntity
  8
0
  6
Continuous
 62
     7
370
    25
100
AcDbSpline
210
0.0
220
0.0
230
1.0
 70
     8
 71
     3
 72
    23
 73
    19
 74
     0
 42
0.00000001
 43
0.00000001
 40
0.0
 40
0.0
 40
0.0
 40
0.0
 40
0.0652265038922754
 40
0.1285689957067288
 40
0.1903203781044667
 40
0.2513779886240628
 40
0.3123875283336942
 40
0.3737887042767233
 40
0.4364311597804497
 40
0.5005667553098528
 40
0.5646867953847429
 40
0.6271355178835128
 40
0.6884554088949794
 40
0.7492457464637463
 40
0.8101551773646782
 40
0.871670925652922
 40
0.9347734961077242
 40
1.0
 40
1.0
 40
1.0
 40
1.0
 10
175.6576923076923
 20
-56.71072945663462
 30
0.0
 10
175.6492562463827
 20
-56.36806107003674
 30
0.0
 10
175.6326277922178
 20
-55.69262198168557
 30
0.0
 10
175.4901948744887
 20
-54.7012412355564
 30
0.0
 10
175.2668145746301
 20
-53.74824758756029
 30
0.0
 10
174.9478834686933
 20
-52.83523196317105
 30
0.0
 10
174.5384419359146
 20
-51.96123122325007
 30
0.0
 10
174.0341330759019
 20
-51.12854508855026
 30
0.0
 10
173.4400930574339
 20
-50.33690057590692
 30
0.0
 10
172.7640529110955
 20
-49.59497021233231
 30
0.0
 10
172.0270843824189
 20
-48.91462683612855
 30
0.0
 10
171.2366167873588
 20
-48.32179695562172
 30
0.0
 10
170.4104274317832
 20
-47.81166993459064
 30
0.0
 10
169.5378845916587
 20
-47.40463308057979
 30
0.0
 10
168.6305601055033
 20
-47.07930305644306
 30
0.0
 10
167.6803334612645
 20
-46.85749231298649
 30
0.0
 10
166.6916572171303
 20
-46.71441569185744
 30
0.0
 10
166.0174450392905
 20
-46.69798634068655
 30
0.0
 10
165.6747596153846
 20
-46.68963570663461
 30
0.0
  0
SPLINE
  5
91
330
1F
100
AcDbEntity
  8
0
  6
Continuous
 62
     7
370
    25
100
AcDbSpline
210
0.0
220
0.0
230
1.0
 70
     8
 71
     3
 72
    23
 73
    19
 74
     0
 42
0.00000001
 43
0.00000001
 40
0.0
 40
0.0
 40
0.0
 40
0.0
 40
0.0658188768433071
 40
0.1297465269068303
 40
0.1920719544880062
 40
0.2534594242982018
 40
0.3145695877964201
 40
0.3762798811880262
 40
0.4390256536685596
 40
0.5032670288290851
 40
0.5674928228792945
 40
0.6297047956052447
 40
0.6909996492157553
 40
0.7514516509174466
 40
0.8120043642646941
 40
0.8731496810680427
 40
0.9356354837317853
 40
1.0
 40
1.0
 40
1.0
 40
1.0
 10
165.6747596153846
 20
-46.68963570663461
 30
0.0
 10
165.3295501077958
 20
-46.69806879794154
 30
0.0
 10
164.6490502753313
 20
-46.71469266575328
 30
0.0
 10
163.6500844113357
 20
-46.85719431189014
 30
0.0
 10
162.6906298341071
 20
-47.08003197972242
 30
0.0
 10
161.773430293937
 20
-47.39849048256909
 30
0.0
 10
160.8979743199796
 20
-47.81006426694287
 30
0.0
 10
160.0625497270278
 20
-48.31191953013963
 30
0.0
 10
159.2705097970411
 20
-48.90740696999416
 30
0.0
 10
158.5284211483182
 20
-49.58322789735637
 30
0.0
 10
157.8494290839251
 20
-50.31894734475664
 30
0.0
 10
157.2574673390824
 20
-51.10725950453936
 30
0.0
 10
156.7554992223023
 20
-51.9326984899845
 30
0.0
 10
156.3453073697208
 20
-52.79755501408359
 30
0.0
 10
156.0205622410019
 20
-53.69764815221747
 30
0.0
 10
155.7990117308448
 20
-54.63898200826723
 30
0.0
 10
155.6556689060128
 20
-55.61618988991633
 30
0.0
 10
155.6391506701624
 20
-56.28154052222974
 30
0.0
 10
155.6307692307693
 20
-56.61914291817308
 30
0.0
  0
SPLINE
  5
92
330
1F
100
AcDbEntity
  8
0
  6
Continuous
 62
     7
370
    25
100
AcDbSpline
210
0.0
220
0.0
230
1.0
 70
     8
 71
     3
 72
    31
 73
    27
 74
     0
 42
0.00000001
 43
0.00000001
 40
0.0
 40
0.0
 40
0.0
 40
0.0
 40
0.0432089861713365
 40
0.0858728716306187
 40
0.128120006696703
 40
0.1701519644541988
 40
0.2119176209878616
 40
0.2537530026191243
 40
0.2960064088559503
 40
0.3384433571447843
 40
0.3810153681620336
 40
0.4228204794407603
 40
0.464089055794314
 40
0.505125848683687
 40
0.5459749706852409
 40
0.58698521113386
 40
0.6283385916346631
 40
0.6700838015912055
 40
0.7119916023637216
 40
0.7530391548630182
 40
0.7940493953116371
 40
0.8348855427015819
 40
0.8754983129295124
 40
0.9165472998303792
 40
0.9580037786449603
 40
1.0
 40
1.0
 40
1.0
 40
1.0
 10
155.6307692307693
 20
-56.61914291817307
 30
0.0
 10
155.6336791754471
 20
-56.84574358875972
 30
0.0
 10
155.6394623545474
 20
-57.29608626098857
 30
0.0
 10
155.7090857092706
 20
-57.96483161324628
 30
0.0
 10
155.8101143972672
 20
-58.62282219337809
 30
0.0
 10
155.9549048070003
 20
-59.26818692444101
 30
0.0
 10
156.1442708801698
 20
-59.89934599832065
 30
0.0
 10
156.3677112006795
 20
-60.52065229318707
 30
0.0
 10
156.6406152161255
 20
-61.12580941814425
 30
0.0
 10
156.9491198861654
 20
-61.71768416445771
 30
0.0
 10
157.2934448698326
 20
-62.28705005193805
 30
0.0
 10
157.6737685918497
 20
-62.8252374973749
 30
0.0
 10
158.0767325259392
 20
-63.33676263700399
 30
0.0
 10
158.5184932826861
 20
-63.80836990075647
 30
0.0
 10
158.9844913629643
 20
-64.25377880196456
 30
0.0
 10
159.4822862496664
 20
-64.6661444474603
 30
0.0
 10
160.0088404654275
 20
-65.04918525195235
 30
0.0
 10
160.5664197038658
 20
-65.39437310840447
 30
0.0
 10
161.1412848857103
 20
-65.70657068395637
 30
0.0
 10
161.733885633338
 20
-65.97447818716246
 30
0.0
 10
162.3361735439616
 20
-66.20441746481268
 30
0.0
 10
162.9509695562417
 20
-66.39078538481368
 30
0.0
 10
163.5766410728505
 20
-66.53791689499872
 30
0.0
 10
164.2145536431685
 20
-66.63810549161406
 30
0.0
 10
164.8641990633467
 20
-66.70790642183017
 30
0.0
 10
165.3018663850602
 20
-66.71366225408629
 30
0.0
 10
165.5221153846154
 20
-66.71655878355769
 30
0.0
  0
SPLINE
  5
93
330
1F
100
AcDbEntity
  8
0
  6
Continuous
 62
     7
370
    25
100
AcDbSpline
210
0.0
220
0.0
230
1.0
 70
     8
 71
     3
 72
    23
 73
    19
 74
     0
 42
0.00000001
 43
0.00000001
 40
0.0
 40
0.0
 40
0.0
 40
0.0
 40
0.0665700352151801
 40
0.1307490414821781
 40
0.1934128000295038
 40
0.2549893988897091
 40
0.3161135558758999
 40
0.3772617579089834
 40
0.4394007841555527
 40
0.502970589371975
 40
0.5665249763607305
 40
0.6282311025133086
 40
0.6890906105998624
 40
0.7493446689958041
 40
0.8101695933722062
 40
0.8716098243170434
 40
0.9348691840727635
 40
1.0
 40
1.0
 40
1.0
 40
1.0
 10
165.5221153846154
 20
-66.71655878355769
 30
0.0
 10
165.874856646772
 20
-66.70762444583804
 30
0.0
 10
166.5676695883471
 20
-66.69007666943463
 30
0.0
 10
167.5858915316733
 20
-66.55575183436898
 30
0.0
 10
168.5579591217223
 20
-66.32336692611958
 30
0.0
 10
169.4917908772005
 20
-66.0138698357602
 30
0.0
 10
170.3762169353842
 20
-65.60100525247341
 30
0.0
 10
171.2178943359402
 20
-65.10197608793975
 30
0.0
 10
172.0148204634765
 20
-64.51155421955548
 30
0.0
 10
172.7562539829382
 20
-63.83430371340601
 30
0.0
 10
173.434743955194
 20
-63.09743091431322
 30
0.0
 10
174.0325105647453
 20
-62.31105828948773
 30
0.0
 10
174.5334836206279
 20
-61.47994052264715
 30
0.0
 10
174.9448862621988
 20
-60.60657514444004
 30
0.0
 10
175.2676401235322
 20
-59.69293731874951
 30
0.0
 10
175.4903566327627
 20
-58.73415624668569
 30
0.0
 10
175.6326228500236
 20
-57.73644411929352
 30
0.0
 10
175.6492550099128
 20
-57.05594075558285
 30
0.0
 10
175.6576923076923
 20
-56.71072945663462
 30
0.0
  0
CIRCLE
  5
94
330
1F
100
AcDbEntity
  8
0
  6
Continuous
 62
     7
370
    25
100
AcDbCircle
 10
40.0
 20
-29.6780972451
 30
0.0
 40
2.0
  0
SPLINE
  5
9A
330
1F
100
AcDbEntity
  8
0
  6
Continuous
 62
     7
370
    25
100
AcDbSpline
210
0.0
220
0.0
230
1.0
 70
     8
 71
     3
 72
    15
 73
    11
 74
     0
 42
0.00000001
 43
0.00000001
 40
0.0
 40
0.0
 40
0.0
 40
0.0
 40
0.1642892164747627
 40
0.3174059112304911
 40
0.4588436116410208
 40
0.5893665423053098
 40
0.7078313187781731
 40
0.8157700306990048
 40
0.9128799029021266
 40
1.0
 40
1.0
 40
1.0
 40
1.0
 10
95.97740384615385
 20
-66.22809724509612
 30
0.0
 10
96.31197076767694
 20
-66.22568839983236
 30
0.0
 10
96.95835231889652
 20
-66.22103452331898
 30
0.0
 10
97.8924143542894
 20
-66.19152666582234
 30
0.0
 10
98.75665169001898
 20
-66.1393271302776
 30
0.0
 10
99.54822196587986
 20
-66.06329299517347
 30
0.0
 10
100.2692982768404
 20
-65.96993148360593
 30
0.0
 10
100.9178615581472
 20
-65.852907854246
 30
0.0
 10
101.4972653645092
 20
-65.71472366972351
 30
0.0
 10
101.8536061768592
 20
-65.59691057624586
 30
0.0
 10
102.0221153846154
 20
-65.54119820663458
 30
0.0
  0
SPLINE
  5
9B
330
1F
100
AcDbEntity
  8
0
  6
Continuous
 62
     7
370
    25
100
AcDbSpline
210
0.0
220
0.0
230
1.0
 70
     8
 71
     3
 72
    23
 73
    19
 74
     0
 42
0.00000001
 43
0.00000001
 40
0.0
 40
0.0
 40
0.0
 40
0.0
 40
0.0615449660163242
 40
0.1216942964020313
 40
0.1811548554526334
 40
0.2398753889119566
 40
0.2987019424504293
 40
0.3576474237092013
 40
0.4176048428493668
 40
0.478494040728291
 40
0.540407050637133
 40
0.6023449938728034
 40
0.665004327923234
 40
0.728559308823376
 40
0.7936505420268858
 40
0.8605342675902677
 40
0.9292359605619637
 40
1.0
 40
1.0
 40
1.0
 40
1.0
 10
102.0221153846154
 20
-65.54119820663458
 30
0.0
 10
102.2425224657028
 20
-65.4572110802015
 30
0.0
 10
102.6783385265622
 20
-65.29114137670389
 30
0.0
 10
103.2988630079645
 20
-64.9778706508757
 30
0.0
 10
103.8830196263973
 20
-64.62292505421132
 30
0.0
 10
104.4339409720632
 20
-64.22583671584027
 30
0.0
 10
104.9390426129145
 20
-63.77536219053626
 30
0.0
 10
105.4180570222896
 20
-63.29063719591483
 30
0.0
 10
105.8513885904178
 20
-62.75403494417625
 30
0.0
 10
106.2482180302389
 20
-62.17668393814633
 30
0.0
 10
106.6060078338343
 20
-61.56538548250184
 30
0.0
 10
106.917008107327
 20
-60.92130439089597
 30
0.0
 10
107.1752934139136
 20
-60.24771158702556
 30
0.0
 10
107.3897051186743
 20
-59.54648028153154
 30
0.0
 10
107.5586865518572
 20
-58.81606856801334
 30
0.0
 10
107.6739767801123
 20
-58.05562595416993
 30
0.0
 10
107.7500188821197
 20
-57.26815779475613
 30
0.0
 10
107.7576609328462
 20
-56.7338082135882
 30
0.0
 10
107.7615384615385
 20
-56.46268258163458
 30
0.0
  0
SPLINE
  5
9C
330
1F
100
AcDbEntity
  8
0
  6
Continuous
 62
     7
370
    25
100
AcDbSpline
210
0.0
220
0.0
230
1.0
 70
     8
 71
     3
 72
    31
 73
    27
 74
     0
 42
0.00000001
 43
0.00000001
 40
0.0
 40
0.0
 40
0.0
 40
0.0
 40
0.0460806833872479
 40
0.0908067996076165
 40
0.1342952705290696
 40
0.1770243856662445
 40
0.2188227336826555
 40
0.2602441163273735
 40
0.301079867113445
 40
0.3416138942851569
 40
0.3815834185517459
 40
0.420119591329617
 40
0.4580746185423136
 40
0.494738487607657
 40
0.5311946228937138
 40
0.5669336984503782
 40
0.6027126507379958
 40
0.6383266061284352
 40
0.6748532488548246
 40
0.7134673707840595
 40
0.7544418038483814
 40
0.7978153607124995
 40
0.8439894562081102
 40
0.8930715698796476
 40
0.9449633461781445
 40
1.0
 40
1.0
 40
1.0
 40
1.0
 10
107.7615384615385
 20
-56.46268258163458
 30
0.0
 10
107.7581150814021
 20
-56.22721784072838
 30
0.0
 10
107.7513689532814
 20
-55.76320997516694
 30
0.0
 10
107.690793676907
 20
-55.07936452907221
 30
0.0
 10
107.6027482777969
 20
-54.41580637646873
 30
0.0
 10
107.4664362867123
 20
-53.77569535195043
 30
0.0
 10
107.3009597492898
 20
-53.15342319460191
 30
0.0
 10
107.0888834401081
 20
-52.5556219789524
 30
0.0
 10
106.8459388109217
 20
-51.97680781672777
 30
0.0
 10
106.5626387576303
 20
-51.4248069835688
 30
0.0
 10
106.2516263620929
 20
-50.9018389141381
 30
0.0
 10
105.917860874108
 20
-50.40884925394711
 30
0.0
 10
105.561698289168
 20
-49.95287268951716
 30
0.0
 10
105.1797423443339
 20
-49.53252838685778
 30
0.0
 10
104.7769289162313
 20
-49.14845002445659
 30
0.0
 10
104.350620774143
 20
-48.79742919806723
 30
0.0
 10
103.8997178835023
 20
-48.48633423525136
 30
0.0
 10
103.4262398067649
 20
-48.20294040337981
 30
0.0
 10
102.9163740178407
 20
-47.95572389691614
 30
0.0
 10
102.3604630889956
 20
-47.7465548435564
 30
0.0
 10
101.7561362488357
 20
-47.5732182656082
 30
0.0
 10
101.104876854738
 20
-47.42859667563275
 30
0.0
 10
100.40555964018
 20
-47.3138759283796
 30
0.0
 10
99.65749898333641
 20
-47.23698799239722
 30
0.0
 10
98.86184422088424
 20
-47.18499274445216
 30
0.0
 10
98.31549422007345
 20
-47.18044037487292
 30
0.0
 10
98.03428485576923
 20
-47.17809724509612
 30
0.0
  0
CIRCLE
  5
BB
330
1F
100
AcDbEntity
  8
0
  6
Continuous
 62
     7
370
    25
100
AcDbCircle
 10
40.0
 20
-85.3219027549
 30
0.0
 40
2.000000000000014
  0
CIRCLE
  5
BC
330
1F
100
AcDbEntity
  8
0
  6
Continuous
 62
     7
370
    25
100
AcDbCircle
 10
240.0
 20
-85.3219027549
 30
0.0
 40
1.999999999999986
  0
CIRCLE
  5
BD
330
1F
100
AcDbEntity
  8
0
  6
Continuous
 62
     7
370
    25
100
AcDbCircle
 10
240.0
 20
-29.6780972451
 30
0.0
 40
2.000000000000028
  0
LINE
  5
BF
330
1F
100
AcDbEntity
  8
0
  6
Continuous
 62
     7
370
    25
100
AcDbLine
 10
188.6019230769
 20
-63.4919494086
 30
0.0
 11
187.0564002404
 21
-62.3204049374
 31
0.0
  0
LINE
  5
C0
330
1F
100
AcDbEntity
  8
0
  6
Continuous
 62
     7
370
    25
100
AcDbLine
 10
177.6115384615
 20
-50.8530071009
 30
0.0
 11
179.2219350962
 21
-51.8184818605
 31
0.0
  0
LINE
  5
C1
330
1F
100
AcDbEntity
  8
0
  6
Continuous
 62
     7
370
    25
100
AcDbLine
 10
280.0
 20
0.0
 30
0.0
 11
0.0
 21
0.0
 31
0.0
  0
LINE
  5
C2
330
1F
100
AcDbEntity
  8
0
  6
Continuous
 62
     7
370
    25
100
AcDbLine
 10
280.0
 20
-115.0
 30
0.0
 11
280.0
 21
0.0
 31
0.0
  0
LINE
  5
C3
330
1F
100
AcDbEntity
  8
0
  6
Continuous
 62
     7
370
    25
100
AcDbLine
 10
0.0
 20
-115.0
 30
0.0
 11
280.0
 21
-115.0
 31
0.0
  0
LINE
  5
C4
330
1F
100
AcDbEntity
  8
0
  6
Continuous
 62
     7
370
    25
100
AcDbLine
 10
0.0
 20
0.0
 30
0.0
 11
0.0
 21
-115.0
 31
0.0
  0
LINE
  5
C5
330
1F
100
AcDbEntity
  8
0
  6
Continuous
 62
     7
370
    25
100
AcDbLine
 10
92.1307692308
 20
-66.2280972451
 30
0.0
 11
95.9774038462
 21
-66.2280972451
 31
0.0
  0
LINE
  5
C6
330
1F
100
AcDbEntity
  8
0
  6
Continuous
 62
     7
370
    25
100
AcDbLine
 10
98.0342848558
 20
-47.1780972451
 30
0.0
 11
92.1307692308
 21
-47.1780972451
 31
0.0
  0
LINE
  5
C7
330
1F
100
AcDbEntity
  8
0
  6
Continuous
 62
     7
370
    25
100
AcDbLine
 10
92.1307692308
 20
-47.1780972451
 30
0.0
 11
92.1307692308
 21
-66.2280972451
 31
0.0
  0
LINE
  5
C8
330
1F
100
AcDbEntity
  8
0
  6
Continuous
 62
     7
370
    25
100
AcDbLine
 10
122.4153846154
 20
-66.2280972451
 30
0.0
 11
122.4153846154
 21
-64.2742510912
 31
0.0
  0
LINE
  5
C9
330
1F
100
AcDbEntity
  8
0
  6
Continuous
 62
     7
370
    25
100
AcDbLine
 10
122.4153846154
 20
-64.2742510912
 30
0.0
 11
113.3788461538
 21
-64.2742510912
 31
0.0
  0
LINE
  5
CA
330
1F
100
AcDbEntity
  8
0
  6
Continuous
 62
     7
370
    25
100
AcDbLine
 10
113.3788461538
 20
-64.2742510912
 30
0.0
 11
113.3788461538
 21
-58.4127126297
 31
0.0
  0
LINE
  5
CB
330
1F
100
AcDbEntity
  8
0
  6
Continuous
 62
     7
370
    25
100
AcDbLine
 10
113.3788461538
 20
-58.4127126297
 30
0.0
 11
122.4153846154
 21
-58.4127126297
 31
0.0
  0
LINE
  5
CC
330
1F
100
AcDbEntity
  8
0
  6
Continuous
 62
     7
370
    25
100
AcDbLine
 10
122.4153846154
 20
-58.4127126297
 30
0.0
 11
122.4153846154
 21
-56.4588664759
 31
0.0
  0
LINE
  5
CD
330
1F
100
AcDbEntity
  8
0
  6
Continuous
 62
     7
370
    25
100
AcDbLine
 10
122.4153846154
 20
-56.4588664759
 30
0.0
 11
113.3788461538
 21
-56.4588664759
 31
0.0
  0
LINE
  5
CE
330
1F
100
AcDbEntity
  8
0
  6
Continuous
 62
     7
370
    25
100
AcDbLine
 10
113.3788461538
 20
-56.4588664759
 30
0.0
 11
113.3788461538
 21
-49.1319433989
 31
0.0
  0
LINE
  5
CF
330
1F
100
AcDbEntity
  8
0
  6
Continuous
 62
     7
370
    25
100
AcDbLine
 10
113.3788461538
 20
-49.1319433989
 30
0.0
 11
122.4153846154
 21
-49.1319433989
 31
0.0
  0
LINE
  5
D0
330
1F
100
AcDbEntity
  8
0
  6
Continuous
 62
     7
370
    25
100
AcDbLine
 10
122.4153846154
 20
-49.1319433989
 30
0.0
 11
122.4153846154
 21
-47.1780972451
 31
0.0
  0
LINE
  5
D1
330
1F
100
AcDbEntity
  8
0
  6
Continuous
 62
     7
370
    25
100
AcDbLine
 10
122.4153846154
 20
-47.1780972451
 30
0.0
 11
111.6692307692
 21
-47.1780972451
 31
0.0
  0
LINE
  5
D2
330
1F
100
AcDbEntity
  8
0
  6
Continuous
 62
     7
370
    25
100
AcDbLine
 10
111.6692307692
 20
-47.1780972451
 30
0.0
 11
111.6692307692
 21
-66.2280972451
 31
0.0
  0
LINE
  5
D3
330
1F
100
AcDbEntity
  8
0
  6
Continuous
 62
     7
370
    25
100
AcDbLine
 10
111.6692307692
 20
-66.2280972451
 30
0.0
 11
122.4153846154
 21
-66.2280972451
 31
0.0
  0
LINE
  5
D4
330
1F
100
AcDbEntity
  8
0
  6
Continuous
 62
     7
370
    25
100
AcDbLine
 10
127.5442307692
 20
-66.2280972451
 30
0.0
 11
127.5442307692
 21
-47.1780972451
 31
0.0
  0
LINE
  5
D5
330
1F
100
AcDbEntity
  8
0
  6
Continuous
 62
     7
370
    25
100
AcDbLine
 10
127.5442307692
 20
-47.1780972451
 30
0.0
 11
125.8346153846
 21
-47.1780972451
 31
0.0
  0
LINE
  5
D6
330
1F
100
AcDbEntity
  8
0
  6
Continuous
 62
     7
370
    25
100
AcDbLine
 10
125.8346153846
 20
-47.1780972451
 30
0.0
 11
125.8346153846
 21
-66.2280972451
 31
0.0
  0
LINE
  5
D7
330
1F
100
AcDbEntity
  8
0
  6
Continuous
 62
     7
370
    25
100
AcDbLine
 10
125.8346153846
 20
-66.2280972451
 30
0.0
 11
127.5442307692
 21
-66.2280972451
 31
0.0
  0
LINE
  5
D8
330
1F
100
AcDbEntity
  8
0
  6
Continuous
 62
     7
370
    25
100
AcDbLine
 10
133.9667367788
 20
-66.2280972451
 30
0.0
 11
134.2109675481
 21
-66.2280972451
 31
0.0
  0
LINE
  5
D9
330
1F
100
AcDbEntity
  8
0
  6
Continuous
 62
     7
370
    25
100
AcDbLine
 10
134.2109675481
 20
-66.2280972451
 30
0.0
 11
142.0759615385
 21
-50.5973280143
 31
0.0
  0
LINE
  5
DA
330
1F
100
AcDbEntity
  8
0
  6
Continuous
 62
     7
370
    25
100
AcDbLine
 10
142.0759615385
 20
-50.5973280143
 30
0.0
 11
149.9180588942
 21
-66.2280972451
 31
0.0
  0
LINE
  5
DB
330
1F
100
AcDbEntity
  8
0
  6
Continuous
 62
     7
370
    25
100
AcDbLine
 10
149.9180588942
 20
-66.2280972451
 30
0.0
 11
150.1622896635
 21
-66.2280972451
 31
0.0
  0
LINE
  5
DC
330
1F
100
AcDbEntity
  8
0
  6
Continuous
 62
     7
370
    25
100
AcDbLine
 10
150.1622896635
 20
-66.2280972451
 30
0.0
 11
152.7
 21
-47.1780972451
 31
0.0
  0
LINE
  5
DD
330
1F
100
AcDbEntity
  8
0
  6
Continuous
 62
     7
370
    25
100
AcDbLine
 10
152.7
 20
-47.1780972451
 30
0.0
 11
150.9903846154
 21
-47.1780972451
 31
0.0
  0
LINE
  5
DE
330
1F
100
AcDbEntity
  8
0
  6
Continuous
 62
     7
370
    25
100
AcDbLine
 10
150.9903846154
 20
-47.1780972451
 30
0.0
 11
149.1586538462
 21
-60.8741008509
 31
0.0
  0
LINE
  5
DF
330
1F
100
AcDbEntity
  8
0
  6
Continuous
 62
     7
370
    25
100
AcDbLine
 10
149.1586538462
 20
-60.8741008509
 30
0.0
 11
142.2858473558
 21
-47.1780972451
 31
0.0
  0
LINE
  5
E0
330
1F
100
AcDbEntity
  8
0
  6
Continuous
 62
     7
370
    25
100
AcDbLine
 10
142.2858473558
 20
-47.1780972451
 30
0.0
 11
141.8966045673
 21
-47.1780972451
 31
0.0
  0
LINE
  5
E1
330
1F
100
AcDbEntity
  8
0
  6
Continuous
 62
     7
370
    25
100
AcDbLine
 10
141.8966045673
 20
-47.1780972451
 30
0.0
 11
134.9932692308
 21
-60.9160780143
 31
0.0
  0
LINE
  5
E2
330
1F
100
AcDbEntity
  8
0
  6
Continuous
 62
     7
370
    25
100
AcDbLine
 10
133.1729867788
 20
-47.1780972451
 30
0.0
 11
131.4519230769
 21
-47.1780972451
 31
0.0
  0
LINE
  5
E3
330
1F
100
AcDbEntity
  8
0
  6
Continuous
 62
     7
370
    25
100
AcDbLine
 10
131.4519230769
 20
-47.1780972451
 30
0.0
 11
133.9667367788
 21
-66.2280972451
 31
0.0
  0
LINE
  5
E4
330
1F
100
AcDbEntity
  8
0
  6
Continuous
 62
     7
370
    25
100
AcDbLine
 10
134.9932692308
 20
-60.9160780143
 30
0.0
 11
133.1729867788
 21
-47.1780972451
 31
0.0
  0
SPLINE
  5
E5
330
1B
100
AcDbEntity
 67
     1
  8
0
  6
Continuous
 62
     7
370
    25
100
AcDbSpline
210
0.0
220
0.0
230
1.0
 70
     8
 71
     3
 72
    15
 73
    11
 74
     0
 42
0.00000001
 43
0.00000001
 40
0.0
 40
0.0
 40
0.0
 40
0.0
 40
0.1719006646132707
 40
0.3306279320958799
 40
0.4755488358809185
 40
0.6067461903123638
 40
0.7250238034674895
 40
0.8297423869584566
 40
0.9213228203439743
 40
0.9999999999999999
 40
0.9999999999999999
 40
0.9999999999999999
 40
0.9999999999999999
 10
96.02701322115384
 20
56.68995935596153
 30
0.0
 10
96.34122049618163
 20
56.68860900283982
 30
0.0
 10
96.9455561561143
 20
56.68601177925588
 30
0.0
 10
97.81455182707303
 20
56.66322143077334
 30
0.0
 10
98.60855254215011
 20
56.62598174236249
 30
0.0
 10
99.32767104327584
 20
56.57386596171825
 30
0.0
 10
99.97150130409415
 20
56.50491249905028
 30
0.0
 10
100.5413888570267
 20
56.42803267123887
 30
0.0
 10
101.0354656201949
 20
56.33225226069519
 30
0.0
 10
101.3344386984076
 20
56.24543346730995
 30
0.0
 10
101.4725961538462
 20
56.20531392326922
 30
0.0
  0
SPLINE
  5
E6
330
1B
100
AcDbEntity
 67
     1
  8
0
  6
Continuous
 62
     7
370
    25
100
AcDbSpline
210
0.0
220
0.0
230
1.0
 70
     8
 71
     3
 72
    23
 73
    19
 74
     0
 42
0.00000001
 43
0.00000001
 40
0.0
 40
0.0
 40
0.0
 40
0.0
 40
0.062414500263277
 40
0.123338231473313
 40
0.1831245376921921
 40
0.2417829946389421
 40
0.3005788825509772
 40
0.3596800748966263
 40
0.4188816408500468
 40
0.4795306644577833
 40
0.5408505357600387
 40
0.6023033958983792
 40
0.664463211946473
 40
0.7278057226670116
 40
0.7928948147812351
 40
0.8596723283028312
 40
0.9284644007334883
 40
1.0
 40
1.0
 40
1.0
 40
1.0
 10
101.4725961538462
 20
56.20531392326922
 30
0.0
 10
101.6464865245799
 20
56.14407329911948
 30
0.0
 10
101.9901138981242
 20
56.02305478186646
 30
0.0
 10
102.484766661879
 20
55.80230522597431
 30
0.0
 10
102.9460869300877
 20
55.54081910348034
 30
0.0
 10
103.3821143534309
 20
55.25015815508659
 30
0.0
 10
103.7866637208485
 20
54.92007062982301
 30
0.0
 10
104.1645292681784
 20
54.55773424790428
 30
0.0
 10
104.5149502155814
 20
54.16130497215636
 30
0.0
 10
104.8343060919318
 20
53.73127483564993
 30
0.0
 10
105.1201012895987
 20
53.27032037652132
 30
0.0
 10
105.3675946953812
 20
52.78297329610614
 30
0.0
 10
105.5845008887574
 20
52.27457337190922
 30
0.0
 10
105.7547457999968
 20
51.7373135226656
 30
0.0
 10
105.8881806224261
 20
51.17599679043008
 30
0.0
 10
105.9826941383215
 20
50.59058368682042
 30
0.0
 10
106.0415571385957
 20
49.98118353843027
 30
0.0
 10
106.0484230195189
 20
49.56669840491893
 30
0.0
 10
106.0519230769231
 20
49.35540406749999
 30
0.0
  0
SPLINE
  5
E7
330
1B
100
AcDbEntity
 67
     1
  8
0
  6
Continuous
 62
     7
370
    25
100
AcDbSpline
210
0.0
220
0.0
230
1.0
 70
     8
 71
     3
 72
    23
 73
    19
 74
     0
 42
0.00000001
 43
0.00000001
 40
0.0
 40
0.0
 40
0.0
 40
0.0
 40
0.0701511759972785
 40
0.1378126061901913
 40
0.2032262471813939
 40
0.2671740552944736
 40
0.3300240034081791
 40
0.3917942717866856
 40
0.4530843989971409
 40
0.514333907645878
 40
0.5749999928182693
 40
0.634865482622213
 40
0.6941163151896416
 40
0.7534416217804382
 40
0.8131258003036113
 40
0.8740796856370753
 40
0.9360070132744082
 40
1.0
 40
1.0
 40
1.0
 40
1.0
 10
106.0519230769231
 20
49.35540406749999
 30
0.0
 10
106.0491293271276
 20
49.13260898188052
 30
0.0
 10
106.0436409809256
 20
48.69492606410908
 30
0.0
 10
105.9746565199118
 20
48.05271956555318
 30
0.0
 10
105.8738463392653
 20
47.43506059626592
 30
0.0
 10
105.7280665623972
 20
46.84190784705215
 30
0.0
 10
105.5422970646815
 20
46.27210410164099
 30
0.0
 10
105.3104605145514
 20
45.72880076757288
 30
0.0
 10
105.0455750582485
 20
45.20625998127932
 30
0.0
 10
104.7304154677117
 20
44.71654236207099
 30
0.0
 10
104.3852534524201
 20
44.25339272523821
 30
0.0
 10
104.0021967091866
 20
43.82909525613102
 30
0.0
 10
103.5873310423378
 20
43.44268342176316
 30
0.0
 10
103.1451813617351
 20
43.08813944856691
 30
0.0
 10
102.663286578687
 20
42.77972715551559
 30
0.0
 10
102.1529986331006
 20
42.50384679133981
 30
0.0
 10
101.6068314799428
 20
42.2697174399102
 30
0.0
 10
101.2268509497271
 20
42.14519105830952
 30
0.0
 10
101.0337439903846
 20
42.08190647134614
 30
0.0
  0
SPLINE
  5
E8
330
1B
100
AcDbEntity
 67
     1
  8
0
  6
Continuous
 62
     7
370
    25
100
AcDbSpline
210
0.0
220
0.0
230
1.0
 70
     8
 71
     3
 72
    15
 73
    11
 74
     0
 42
0.00000001
 43
0.00000001
 40
0.0
 40
0.0
 40
0.0
 40
0.0
 40
0.0843186169585838
 40
0.179284514213904
 40
0.2865825276465608
 40
0.4051114834342792
 40
0.5355928734189744
 40
0.6781902099934147
 40
0.8329758397604895
 40
1.0
 40
1.0
 40
1.0
 40
1.0
 10
101.0337439903846
 20
42.08190647134614
 30
0.0
 10
100.8739898937045
 20
42.03772991393226
 30
0.0
 10
100.5343088523155
 20
41.94379843211633
 30
0.0
 10
99.98001119811958
 20
41.84133461881998
 30
0.0
 10
99.35617731336815
 20
41.75095870274258
 30
0.0
 10
98.66003751159217
 20
41.67444280286678
 30
0.0
 10
97.89238532708572
 20
41.61953895384835
 30
0.0
 10
97.05263036819372
 20
41.57832937005683
 30
0.0
 10
96.14040966333273
 20
41.55053469897417
 30
0.0
 10
95.50804472907534
 20
41.54863673548259
 30
0.0
 10
95.17983774038461
 20
41.54765166365384
 30
0.0
  0
LINE
  5
EC
330
1B
100
AcDbEntity
 67
     1
  8
0
  6
Continuous
 62
     7
370
    25
100
AcDbLine
 10
95.1798377404
 20
41.5476516637
 30
0.0
 11
93.8403846154
 21
41.5476516637
 31
0.0
  0
LINE
  5
ED
330
1B
100
AcDbEntity
 67
     1
  8
0
  6
Continuous
 62
     7
370
    25
100
AcDbLine
 10
93.8403846154
 20
41.5476516637
 30
0.0
 11
93.8403846154
 21
56.689959356
 31
0.0
  0
LINE
  5
EE
330
1B
100
AcDbEntity
 67
     1
  8
0
  6
Continuous
 62
     7
370
    25
100
AcDbLine
 10
93.8403846154
 20
56.689959356
 30
0.0
 11
96.0270132212
 21
56.689959356
 31
0.0
  0
VIEWPORT
  5
F3
330
1B
100
AcDbEntity
 67
     1
  8
0
100
AcDbViewport
 10
0.0
 20
0.0
 30
0.0
 40
205.6
 41
156.0
 68
     1
 69
     1
 12
140.0
 22
-57.5
 13
0.0
 23
0.0
 14
10.0
 24
10.0
 15
10.0
 25
10.0
 16
0.0
 26
0.0
 36
1.0
 17
0.0
 27
0.0
 37
0.0
 42
50.0
 43
0.0
 44
0.0
 45
216.7003891051
 50
0.0
 51
0.0
 72
   100
 90
   557152
  1

281
     0
 71
     1
 74
     0
110
0.0
120
0.0
130
0.0
111
1.0
121
0.0
131
0.0
112
0.0
122
1.0
132
0.0
 79
     0
146
0.0
  0
ENDSEC
  0
SECTION
  2
OBJECTS
  0
DICTIONARY
  5
C
330
0
100
AcDbDictionary
281
     1
  3
ACAD_GROUP
350
D
  3
ACAD_LAYOUT
350
1A
  3
ACAD_MLINESTYLE
350
17
  3
ACAD_PLOTSETTINGS
350
19
  3
ACAD_PLOTSTYLENAME
350
E
  3
ACAD_SCALELIST
350
47
  3
DWGPROPS
350
F7
  0
DICTIONARY
  5
D
102
{ACAD_REACTORS
330
C
102
}
330
C
100
AcDbDictionary
281
     1
  0
DICTIONARY
  5
1A
102
{ACAD_REACTORS
330
C
102
}
330
C
100
AcDbDictionary
281
     1
  3
Flat-Pattern6
350
1E
  3
Flat-Pattern7
350
26
  3
Model
350
22
  0
DICTIONARY
  5
17
102
{ACAD_REACTORS
330
C
102
}
330
C
100
AcDbDictionary
281
     1
  3
Standard
350
18
  0
DICTIONARY
  5
19
102
{ACAD_REACTORS
330
C
102
}
330
C
100
AcDbDictionary
281
     1
  0
ACDBDICTIONARYWDFLT
  5
E
102
{ACAD_REACTORS
330
C
102
}
330
C
100
AcDbDictionary
281
     1
  3
Normal
350
F
100
AcDbDictionaryWithDefault
340
F
  0
DICTIONARY
  5
47
102
{ACAD_REACTORS
330
C
102
}
330
C
100
AcDbDictionary
281
     1
  3
A0
350
48
  3
A1
350
49
  3
A2
350
4A
  3
A3
350
4B
  3
A4
350
4C
  3
A5
350
4D
  3
A6
350
4E
  3
A7
350
4F
  3
A8
350
50
  3
A9
350
51
  3
B0
350
52
  3
B1
350
53
  3
B2
350
54
  3
B3
350
55
  3
B4
350
56
  3
B5
350
57
  3
B6
350
58
  3
B7
350
59
  3
B8
350
5A
  3
B9
350
5B
  3
C0
350
5C
  3
C1
350
5D
  3
C2
350
5E
  3
C3
350
5F
  3
C4
350
60
  3
C5
350
61
  3
C6
350
62
  3
C7
350
63
  3
C8
350
64
  3
C9
350
65
  3
D0
350
66
  3
D1
350
67
  3
D2
350
68
  0
XRECORD
  5
F7
102
{ACAD_REACTORS
330
C
102
}
330
C
100
AcDbXrecord
280
     1
  1
DWGPROPS COOKIE
  2

  3

  4

  6

  7

  8
mitta
  9

300
=
301
=
302
=
303
=
304
=
305
=
306
=
307
=
308
=
309
=
 40
0.0
 41
2461042.232542755
 42
2461042.232644236
  1

 90
        0
  0
LAYOUT
  5
1E
102
{ACAD_REACTORS
330
1A
102
}
330
1A
100
AcDbPlotSettings
  1

  2
none_device
  4
ISO_A4_(210.00_x_297.00_MM)
  6

 40
7.5
 41
20.0
 42
7.5
 43
20.0
 44
210.0
 45
297.0
 46
0.0
 47
0.0
 48
0.0
 49
0.0
140
0.0
141
0.0
142
1.0
143
0.07765286
 70
   688
 72
     1
 73
     1
 74
     1
  7

 75
     0
147
12.8778257557
148
-93.8403846154
149
-41.5476516637
100
AcDbLayout
  1
Flat-Pattern6
 70
     1
 71
     1
 10
92.2873274162
 20
40.9652552139
 11
115.3502268245
 21
57.2723558057
 12
0.0
 22
0.0
 32
0.0
 14
93.8403846154
 24
41.5476516637
 34
0.0
 15
106.0519230769
 25
56.689959356
 35
0.0
146
0.0
 13
0.0
 23
0.0
 33
0.0
 16
1.0
 26
0.0
 36
0.0
 17
0.0
 27
1.0
 37
0.0
 76
     0
330
1B
331
F3
  0
LAYOUT
  5
26
102
{ACAD_REACTORS
330
1A
102
}
330
1A
100
AcDbPlotSettings
  1

  2
none_device
  4
ISO_A4_(210.00_x_297.00_MM)
  6

 40
7.5
 41
20.0
 42
7.5
 43
20.0
 44
210.0
 45
297.0
 46
0.0
 47
0.0
 48
0.0
 49
0.0
140
0.0
141
0.0
142
1.0
143
0.07765286
 70
   688
 72
     1
 73
     1
 74
     1
  7

 75
     0
147
12.8778257557
148
-93.8403846154
149
-41.5476516637
100
AcDbLayout
  1
Flat-Pattern7
 70
     1
 71
     2
 10
0.0
 20
0.0
 11
0.0
 21
0.0
 12
0.0
 22
0.0
 32
0.0
 14
0.0
 24
0.0
 34
0.0
 15
0.0
 25
0.0
 35
0.0
146
0.0
 13
0.0
 23
0.0
 33
0.0
 16
1.0
 26
0.0
 36
0.0
 17
0.0
 27
1.0
 37
0.0
 76
     0
330
23
331
F5
  0
LAYOUT
  5
22
102
{ACAD_REACTORS
330
1A
102
}
330
1A
100
AcDbPlotSettings
  1

  2
none_device
  4
ANSI_A_(11.00_x_8.50_Inches)
  6

 40
6.35
 41
19.05
 42
6.35000508
 43
19.05000254
 44
279.4
 45
215.9
 46
-4.95300254
 47
145.7030165871
 48
0.0
 49
0.0
140
0.0
141
0.0
142
0.0388928571
143
1.0
 70
  1696
 72
     0
 73
     0
 74
     0
  7

 75
     0
147
0.0179189148
148
-1300.4909072572
149
0.0
100
AcDbLayout
  1
Model
 70
     1
 71
     0
 10
0.0
 20
0.0
 11
420.0
 21
297.0
 12
0.0
 22
0.0
 32
0.0
 14
0.0
 24
-115.0
 34
0.0
 15
280.0
 25
0.0
 35
0.0
146
0.0
 13
0.0
 23
0.0
 33
0.0
 16
1.0
 26
0.0
 36
0.0
 17
0.0
 27
1.0
 37
0.0
 76
     0
330
1F
331
29
  0
MLINESTYLE
  5
18
102
{ACAD_REACTORS
330
17
102
}
330
17
100
AcDbMlineStyle
  2
Standard
 70
     0
  3

 62
   256
 51
90.0
 52
90.0
 71
     2
 49
0.5
 62
   256
  6
BYLAYER
 49
-0.5
 62
   256
  6
BYLAYER
  0
ACDBPLACEHOLDER
  5
F
102
{ACAD_REACTORS
330
E
102
}
330
E
  0
SCALE
  5
48
102
{ACAD_REACTORS
330
47
102
}
330
47
100
AcDbScale
 70
     0
300
1:1
140
1.0
141
1.0
290
     1
  0
SCALE
  5
49
102
{ACAD_REACTORS
330
47
102
}
330
47
100
AcDbScale
 70
     0
300
1:2
140
1.0
141
2.0
290
     0
  0
SCALE
  5
4A
102
{ACAD_REACTORS
330
47
102
}
330
47
100
AcDbScale
 70
     0
300
1:4
140
1.0
141
4.0
290
     0
  0
SCALE
  5
4B
102
{ACAD_REACTORS
330
47
102
}
330
47
100
AcDbScale
 70
     0
300
1:5
140
1.0
141
5.0
290
     0
  0
SCALE
  5
4C
102
{ACAD_REACTORS
330
47
102
}
330
47
100
AcDbScale
 70
     0
300
1:8
140
1.0
141
8.0
290
     0
  0
SCALE
  5
4D
102
{ACAD_REACTORS
330
47
102
}
330
47
100
AcDbScale
 70
     0
300
1:10
140
1.0
141
10.0
290
     0
  0
SCALE
  5
4E
102
{ACAD_REACTORS
330
47
102
}
330
47
100
AcDbScale
 70
     0
300
1:16
140
1.0
141
16.0
290
     0
  0
SCALE
  5
4F
102
{ACAD_REACTORS
330
47
102
}
330
47
100
AcDbScale
 70
     0
300
1:20
140
1.0
141
20.0
290
     0
  0
SCALE
  5
50
102
{ACAD_REACTORS
330
47
102
}
330
47
100
AcDbScale
 70
     0
300
1:30
140
1.0
141
30.0
290
     0
  0
SCALE
  5
51
102
{ACAD_REACTORS
330
47
102
}
330
47
100
AcDbScale
 70
     0
300
1:40
140
1.0
141
40.0
290
     0
  0
SCALE
  5
52
102
{ACAD_REACTORS
330
47
102
}
330
47
100
AcDbScale
 70
     0
300
1:50
140
1.0
141
50.0
290
     0
  0
SCALE
  5
53
102
{ACAD_REACTORS
330
47
102
}
330
47
100
AcDbScale
 70
     0
300
1:100
140
1.0
141
100.0
290
     0
  0
SCALE
  5
54
102
{ACAD_REACTORS
330
47
102
}
330
47
100
AcDbScale
 70
     0
300
2:1
140
2.0
141
1.0
290
     0
  0
SCALE
  5
55
102
{ACAD_REACTORS
330
47
102
}
330
47
100
AcDbScale
 70
     0
300
4:1
140
4.0
141
1.0
290
     0
  0
SCALE
  5
56
102
{ACAD_REACTORS
330
47
102
}
330
47
100
AcDbScale
 70
     0
300
8:1
140
8.0
141
1.0
290
     0
  0
SCALE
  5
57
102
{ACAD_REACTORS
330
47
102
}
330
47
100
AcDbScale
 70
     0
300
10:1
140
10.0
141
1.0
290
     0
  0
SCALE
  5
58
102
{ACAD_REACTORS
330
47
102
}
330
47
100
AcDbScale
 70
     0
300
100:1
140
100.0
141
1.0
290
     0
  0
SCALE
  5
59
102
{ACAD_REACTORS
330
47
102
}
330
47
100
AcDbScale
 70
     0
300
1/128" = 1'-0"
140
0.0078125
141
12.0
290
     0
  0
SCALE
  5
5A
102
{ACAD_REACTORS
330
47
102
}
330
47
100
AcDbScale
 70
     0
300
1/64" = 1'-0"
140
0.015625
141
12.0
290
     0
  0
SCALE
  5
5B
102
{ACAD_REACTORS
330
47
102
}
330
47
100
AcDbScale
 70
     0
300
1/32" = 1'-0"
140
0.03125
141
12.0
290
     0
  0
SCALE
  5
5C
102
{ACAD_REACTORS
330
47
102
}
330
47
100
AcDbScale
 70
     0
300
1/16" = 1'-0"
140
0.0625
141
12.0
290
     0
  0
SCALE
  5
5D
102
{ACAD_REACTORS
330
47
102
}
330
47
100
AcDbScale
 70
     0
300
3/32" = 1'-0"
140
0.09375
141
12.0
290
     0
  0
SCALE
  5
5E
102
{ACAD_REACTORS
330
47
102
}
330
47
100
AcDbScale
 70
     0
300
1/8" = 1'-0"
140
0.125
141
12.0
290
     0
  0
SCALE
  5
5F
102
{ACAD_REACTORS
330
47
102
}
330
47
100
AcDbScale
 70
     0
300
3/16" = 1'-0"
140
0.1875
141
12.0
290
     0
  0
SCALE
  5
60
102
{ACAD_REACTORS
330
47
102
}
330
47
100
AcDbScale
 70
     0
300
1/4" = 1'-0"
140
0.25
141
12.0
290
     0
  0
SCALE
  5
61
102
{ACAD_REACTORS
330
47
102
}
330
47
100
AcDbScale
 70
     0
300
3/8" = 1'-0"
140
0.375
141
12.0
290
     0
  0
SCALE
  5
62
102
{ACAD_REACTORS
330
47
102
}
330
47
100
AcDbScale
 70
     0
300
1/2" = 1'-0"
140
0.5
141
12.0
290
     0
  0
SCALE
  5
63
102
{ACAD_REACTORS
330
47
102
}
330
47
100
AcDbScale
 70
     0
300
3/4" = 1'-0"
140
0.75
141
12.0
290
     0
  0
SCALE
  5
64
102
{ACAD_REACTORS
330
47
102
}
330
47
100
AcDbScale
 70
     0
300
1" = 1'-0"
140
1.0
141
12.0
290
     0
  0
SCALE
  5
65
102
{ACAD_REACTORS
330
47
102
}
330
47
100
AcDbScale
 70
     0
300
1-1/2" = 1'-0"
140
1.5
141
12.0
290
     0
  0
SCALE
  5
66
102
{ACAD_REACTORS
330
47
102
}
330
47
100
AcDbScale
 70
     0
300
3" = 1'-0"
140
3.0
141
12.0
290
     0
  0
SCALE
  5
67
102
{ACAD_REACTORS
330
47
102
}
330
47
100
AcDbScale
 70
     0
300
6" = 1'-0"
140
6.0
141
12.0
290
     0
  0
SCALE
  5
68
102
{ACAD_REACTORS
330
47
102
}
330
47
100
AcDbScale
 70
     0
300
1'-0" = 1'-0"
140
12.0
141
12.0
290
     0
  0
ENDSEC
  0
EOF
